<svg width="49" height="48" viewBox="0 0 49 48" fill="none" xmlns="http://www.w3.org/2000/svg">
<g clip-path="url(#clip0_1656_4212)">
<path d="M48.5 23.9999C48.5 37.2557 37.7543 48 24.4999 48C11.2449 48 0.5 37.2557 0.5 23.9999C0.5 10.7455 11.2449 0 24.4999 0C37.7543 0 48.5 10.7455 48.5 23.9999Z" fill="#EFB930"/>
<path d="M47.6989 24C47.6989 36.813 37.3126 47.1994 24.4995 47.1994C11.6863 47.1994 1.2998 36.8131 1.2998 24C1.2998 11.1868 11.6863 0.800293 24.4995 0.800293C37.3124 0.800293 47.6989 11.1868 47.6989 24Z" fill="#045FC6"/>
<path d="M41.033 24C41.033 33.1308 33.631 40.5316 24.5002 40.5316C15.369 40.5316 7.9668 33.1308 7.9668 24C7.9668 14.8683 15.369 7.46655 24.5002 7.46655C33.6312 7.46645 41.033 14.8683 41.033 24Z" fill="#EFB930"/>
<path d="M40.5327 23.9999C40.5327 32.8544 33.3536 40.0322 24.5003 40.0322C15.6457 40.0322 8.46777 32.8543 8.46777 23.9999C8.46777 15.1454 15.6457 7.96729 24.5003 7.96729C33.3538 7.96729 40.5327 15.1453 40.5327 23.9999Z" fill="white"/>
<path d="M10.7625 37.8316C10.9399 38.0009 11.3763 38.4166 11.3763 38.4166L11.7947 37.9761L10.5468 36.7864L10.3862 36.9548L8.71069 38.7113L9.34685 39.3168C9.34685 39.3168 9.88416 38.7533 10.0808 38.548C10.2451 38.7041 10.6393 39.0799 10.6393 39.0799L11.0579 38.6403C11.0579 38.6403 10.6643 38.2648 10.5002 38.1077C10.6043 37.9979 10.6572 37.9424 10.7625 37.8316Z" fill="#EFB930"/>
<path d="M13.7718 39.8375C13.7154 39.5006 13.5263 39.203 13.2401 38.9997C12.9552 38.7973 12.6133 38.7174 12.2765 38.7727C11.9137 38.8344 11.5877 39.0458 11.3581 39.3671C11.1293 39.6906 11.0369 40.0675 11.0985 40.4317C11.1551 40.7676 11.3429 41.0632 11.6282 41.2666C11.9137 41.4696 12.2581 41.5508 12.5944 41.4942C12.9571 41.4331 13.2832 41.2213 13.512 40.899C13.6952 40.6434 13.7907 40.3506 13.7907 40.058C13.7908 39.9851 13.7847 39.9102 13.7718 39.8375H13.7718ZM11.9799 40.7705C11.6883 40.5642 11.929 40.1329 12.0988 39.8958C12.2683 39.6568 12.5968 39.2872 12.8884 39.4933C13.1927 39.7111 12.9084 40.1814 12.7719 40.3724C12.6349 40.5654 12.2848 40.9881 11.9799 40.7705Z" fill="#EFB930"/>
<path d="M15.7338 40.5036C15.0623 40.1638 14.2856 40.4423 13.9288 41.1494C13.7501 41.5028 13.7151 41.8908 13.8303 42.2399C13.9366 42.5643 14.1671 42.829 14.4797 42.9862C14.7922 43.1453 15.1439 43.173 15.4689 43.0663C15.8178 42.9525 16.1088 42.6947 16.2865 42.3414C16.6447 41.6331 16.4066 40.8434 15.7338 40.5036ZM14.9911 42.4686C14.9123 42.4944 14.8376 42.4863 14.7528 42.4441C14.6196 42.3763 14.5728 42.255 14.5728 42.1195C14.5728 41.932 14.6629 41.711 14.7394 41.5604C14.8719 41.2984 15.1409 40.8847 15.46 41.0458C15.5443 41.0888 15.5947 41.1446 15.6202 41.2225C15.6736 41.3837 15.62 41.6483 15.476 41.9317C15.3328 42.2151 15.1517 42.4155 14.9911 42.4686Z" fill="#EFB930"/>
<path d="M17.1206 41.476L16.9971 41.8302C16.9971 41.8302 17.3131 41.9411 17.409 41.9728C17.2881 42.3187 16.7305 43.9104 16.7305 43.9104L17.5584 44.2007C17.5584 44.2007 18.1169 42.6105 18.2376 42.2645C18.3341 42.2982 18.6503 42.4081 18.6503 42.4081L18.8509 41.8364L17.1976 41.2563L17.1206 41.476Z" fill="#EFB930"/>
<path d="M20.5574 42.2441L19.4385 42.0078L19.3907 42.2354L18.8906 44.61L20.0293 44.8515C20.3932 44.9266 20.6328 44.8372 20.7694 44.7489C20.9429 44.6357 21.0645 44.4501 21.1112 44.2282C21.1241 44.1678 21.1302 44.1093 21.1302 44.0519C21.1302 43.8916 21.0794 43.747 20.9875 43.6228C21.1158 43.521 21.2073 43.3772 21.2453 43.1977C21.255 43.1514 21.2608 43.0991 21.2608 43.0445C21.2608 42.7405 21.0872 42.3546 20.5574 42.2441H20.5574ZM20.2494 44.057C20.2375 44.1112 20.2157 44.183 20.1746 44.2098C20.1366 44.2345 20.0636 44.2376 19.9691 44.2171C19.9691 44.2171 19.9261 44.2076 19.8752 44.1976C19.9115 44.0262 19.9359 43.9122 19.9713 43.7407C20.02 43.7521 20.0822 43.7643 20.0822 43.7643C20.229 43.7953 20.2572 43.904 20.2572 43.9828C20.2573 44.0145 20.2532 44.0414 20.2494 44.0569L20.2494 44.057ZM20.173 42.786C20.2712 42.8084 20.3434 42.8444 20.3712 42.8864C20.3839 42.9057 20.3901 42.9328 20.3901 42.9647C20.3901 42.984 20.3875 43.0063 20.3825 43.0331C20.3674 43.1027 20.347 43.1993 20.1535 43.1596C20.1535 43.1596 20.1293 43.1532 20.0961 43.1461C20.127 43.0024 20.1416 42.9307 20.1729 42.7861L20.173 42.786Z" fill="#EFB930"/>
<path d="M22.6235 42.6308L21.4082 45.1194L22.1022 45.1726C22.1022 45.1726 22.29 44.7761 22.3651 44.6182C22.5119 44.6304 22.659 44.6407 22.8029 44.6523C22.8567 44.8185 22.9923 45.2404 22.9923 45.2404L23.9157 45.3122L22.884 42.1143L22.6235 42.6308Z" fill="#EFB930"/>
<path d="M25.3635 44.6173C25.3481 44.2535 25.2783 42.5979 25.2783 42.5979L24.4014 42.6348L24.5122 45.2919L26.2696 45.2189L26.2432 44.5813C26.2432 44.5814 25.6155 44.6082 25.3635 44.6173Z" fill="#EFB930"/>
<path d="M27.7688 44.3626C27.7123 44.0031 27.4557 42.3662 27.4557 42.3662L27.2259 42.4031L26.5879 42.5024L26.9997 45.1306L28.738 44.8576L28.6384 44.2271C28.6384 44.2271 28.0183 44.325 27.7688 44.3626Z" fill="#EFB930"/>
<path d="M32.8007 42.595C32.7937 42.8228 32.6593 43.019 32.4498 43.1019C32.3337 43.1481 32.2228 43.1481 32.1117 43.101C31.9413 43.028 31.7834 42.8434 31.6885 42.6062C31.577 42.3264 31.5542 42.0887 31.6275 41.9217C31.6777 41.8047 31.7764 41.7174 31.9271 41.657C32.0903 41.5921 32.2453 41.6518 32.4578 41.777L32.6527 41.892L32.9763 41.3815L32.7843 41.2553C32.4312 41.0234 31.9942 40.976 31.6161 41.1271C31.2652 41.2669 30.9932 41.5287 30.8494 41.8633C30.7035 42.2027 30.7035 42.5911 30.8515 42.9594C31.1308 43.6576 31.92 44.0015 32.6101 43.7252C33.1088 43.526 33.3911 43.1471 33.427 42.6296L33.4434 42.3987L32.8081 42.3515L32.8007 42.5951" fill="#EFB930"/>
<path d="M34.848 41.8692C34.6683 41.5499 33.8613 40.1023 33.8613 40.1023L33.6592 40.2163L33.0945 40.5317L34.3923 42.8535L35.9266 41.9964L35.616 41.439C35.6161 41.439 35.0669 41.7452 34.848 41.8692Z" fill="#EFB930"/>
<path d="M36.5545 38.2881L36.3664 38.4257L36.0368 38.668L37.1138 40.136C37.1631 40.2024 37.1631 40.2469 37.1588 40.2727C37.1485 40.3484 37.0696 40.4305 36.9998 40.4808C36.9669 40.5043 36.8908 40.5363 36.8128 40.524C36.7572 40.516 36.7133 40.4858 36.6742 40.433L35.6098 38.9814L34.9004 39.5007L35.9597 40.945C36.1169 41.1588 36.3121 41.2852 36.5399 41.32C36.7954 41.3598 37.086 41.2728 37.356 41.0733C37.9114 40.6672 37.9023 40.128 37.6599 39.7976L36.5545 38.2881Z" fill="#EFB930"/>
<path d="M39.7859 37.7544C39.6227 37.585 39.4213 37.5088 39.2099 37.5203C39.1974 37.3561 39.1337 37.199 39.0067 37.0676C38.7848 36.8385 38.2888 36.6601 37.8322 37.1046L37.0107 37.899L38.8617 39.8099L39.6973 38.9999C39.9644 38.7412 40.0231 38.4906 40.0257 38.3287C40.0301 38.1209 39.9447 37.9175 39.7859 37.7544ZM38.3876 37.69C38.4152 37.7194 38.4489 37.7537 38.4489 37.8015C38.4489 37.8406 38.4276 37.889 38.3634 37.9503C38.3634 37.9503 38.3461 37.9679 38.3227 37.9914C38.2189 37.8839 38.1698 37.8334 38.0647 37.7253C38.2499 37.5554 38.3269 37.628 38.3876 37.69ZM38.8258 38.3479C38.9759 38.2031 39.1203 38.3303 39.1615 38.3735C39.2014 38.4135 39.2467 38.4699 39.2467 38.5188C39.2467 38.5188 39.2467 38.5188 39.2467 38.5204C39.2458 38.5656 39.2076 38.6281 39.1389 38.6948C39.1389 38.6948 39.107 38.7258 39.0691 38.7615C38.948 38.6362 38.8661 38.5522 38.7448 38.4277C38.7807 38.3921 38.8258 38.3478 38.8258 38.3478V38.3479Z" fill="#EFB930"/>
<path d="M10.757 37.5851C10.8294 37.6547 11.3699 38.1702 11.3699 38.1702L11.5481 37.9823L10.5523 37.0327L10.5123 37.0747L8.95801 38.7051L9.34092 39.0705C9.34092 39.0705 10.0031 38.3765 10.0744 38.3006C10.1468 38.3695 10.634 38.8335 10.634 38.8335L10.8126 38.6461C10.8126 38.6461 10.3254 38.1824 10.2529 38.1136C10.3176 38.0459 10.693 37.652 10.757 37.5851Z" fill="white"/>
<path d="M13.139 39.1416C12.8922 38.9659 12.5968 38.8957 12.3069 38.9442C11.9886 38.9988 11.7032 39.1846 11.5011 39.4689C11.2984 39.7542 11.2171 40.0849 11.2712 40.402C11.3197 40.6927 11.4831 40.9493 11.7301 41.1244C11.9784 41.3011 12.275 41.3702 12.5662 41.3214C12.8828 41.2682 13.1687 41.0816 13.3704 40.7991C13.5317 40.5713 13.6169 40.3133 13.6169 40.0577C13.6169 39.994 13.6113 39.9295 13.6009 39.8659C13.5516 39.5756 13.3879 39.3183 13.139 39.1416H13.139ZM12.9143 40.4742C12.7473 40.7077 12.3126 41.221 11.8799 40.9132C11.4487 40.6072 11.791 40.0285 11.9573 39.7934C12.1241 39.5583 12.5591 39.0459 12.9896 39.352C13.4224 39.6608 13.0811 40.2398 12.9143 40.4742Z" fill="white"/>
<path d="M15.6544 40.6601C15.0717 40.3655 14.3967 40.6106 14.0837 41.2297C13.926 41.5409 13.8949 41.8796 13.995 42.1867C14.0869 42.4656 14.2866 42.6937 14.5576 42.83C14.8291 42.9689 15.1335 42.9935 15.414 42.9012C15.719 42.8004 15.9737 42.5745 16.1313 42.2634C16.4434 41.6444 16.2386 40.9546 15.6544 40.6601ZM14.6735 42.599C14.2017 42.3617 14.4527 41.7376 14.5831 41.4812C14.7131 41.2236 15.0662 40.6514 15.5373 40.8908C15.6627 40.9536 15.7464 41.0469 15.7863 41.1689C15.8788 41.4516 15.7287 41.8168 15.6308 42.0109C15.5333 42.2036 15.3275 42.5414 15.0446 42.6341C14.9235 42.6751 14.7983 42.6627 14.6735 42.599Z" fill="white"/>
<path d="M17.2859 41.533L17.219 41.7221C17.219 41.7221 17.5487 41.838 17.6313 41.8671C17.5948 41.9706 16.9521 43.803 16.9521 43.803L17.4516 43.9785C17.4516 43.9785 18.0947 42.1462 18.1307 42.0424C18.2133 42.0712 18.543 42.1864 18.543 42.1864L18.6291 41.943L17.3043 41.478L17.2859 41.533" fill="white"/>
<path d="M20.5221 42.414L19.5739 42.2139L19.5611 42.2714L19.0977 44.4766L20.0652 44.6797C20.3112 44.7312 20.5159 44.7056 20.6742 44.6019C20.8111 44.5125 20.903 44.3699 20.9406 44.1924C20.9502 44.144 20.956 44.0977 20.956 44.0526C20.956 43.8597 20.8603 43.6964 20.6896 43.5794C20.8873 43.5225 21.0289 43.377 21.0744 43.161C21.0822 43.1273 21.0868 43.0874 21.0868 43.0423C21.0867 42.8217 20.9707 42.5086 20.5222 42.414H20.5221ZM20.1906 42.6092C20.3501 42.6429 20.4605 42.7039 20.5166 42.7907C20.5489 42.8399 20.5649 42.8976 20.5649 42.9646C20.5649 42.9974 20.5606 43.0313 20.5529 43.0681C20.4914 43.3618 20.2542 43.3587 20.1177 43.3289C20.1177 43.3289 19.9733 43.2991 19.8896 43.2815C19.9091 43.191 20.0192 42.6676 20.0382 42.5774C20.0988 42.5897 20.1906 42.6092 20.1906 42.6092ZM20.1177 43.5935C20.3871 43.6502 20.4297 43.8627 20.4297 43.9919C20.4297 44.0473 20.421 44.0869 20.4199 44.0935C20.3927 44.2209 20.3441 44.307 20.2695 44.3552C20.1906 44.4078 20.0771 44.4179 19.9334 44.3881C19.9334 44.3881 19.7609 44.3513 19.6685 44.3329C19.6884 44.2381 19.8173 43.6273 19.8368 43.5342C19.9158 43.5506 20.1177 43.5935 20.1177 43.5935H20.1177Z" fill="white"/>
<path d="M22.7807 42.7073L21.6777 44.9651L21.9954 44.9887C21.9954 44.9887 22.2289 44.4981 22.2598 44.4353C22.3269 44.4405 22.8669 44.4825 22.9331 44.4879C22.9542 44.5526 23.1226 45.076 23.1226 45.076L23.6697 45.1182L22.8505 42.5784L22.7807 42.7073ZM22.6596 43.6151C22.713 43.7857 22.8156 44.1144 22.8495 44.2218C22.7405 44.2137 22.4896 44.1942 22.3818 44.186C22.4312 44.0846 22.5816 43.7755 22.6596 43.6151Z" fill="white"/>
<path d="M25.196 44.7991C25.1916 44.6891 25.1106 42.7798 25.1106 42.7798L25.0542 42.7818L24.582 42.8011L24.6791 45.111L26.0882 45.0512L26.0758 44.7629C26.076 44.763 25.2979 44.7959 25.196 44.7992" fill="white"/>
<path d="M27.6236 44.564C27.606 44.4552 27.3096 42.5652 27.3096 42.5652L27.253 42.5743L26.7871 42.648L27.1453 44.9314L28.5385 44.7115L28.4935 44.4261C28.4934 44.4263 27.7233 44.5473 27.6236 44.5641" fill="white"/>
<path d="M32.9747 42.5989C32.9665 42.8997 32.7899 43.1545 32.5148 43.2653C32.3546 43.3291 32.1965 43.3268 32.0436 43.2612C31.8282 43.1701 31.6401 42.9543 31.5261 42.6711C31.3978 42.3476 31.3771 42.0644 31.4667 41.8526C31.5365 41.6925 31.6691 41.5726 31.863 41.4957C32.1166 41.3941 32.3495 41.5099 32.5466 41.6269L32.5959 41.6556L32.7376 41.433L32.6902 41.401C32.3843 41.2006 32.0065 41.1588 31.6814 41.289C31.3733 41.4125 31.1341 41.6403 31.0099 41.9319C30.8825 42.2274 30.8837 42.5703 31.014 42.8935C31.2572 43.5035 31.9438 43.8031 32.5467 43.5629C32.9839 43.3874 33.2212 43.0702 33.2529 42.6175L33.2571 42.5591L32.978 42.5398L32.9747 42.5989" fill="white"/>
<path d="M34.7803 42.1063C34.7259 42.0109 33.7937 40.3406 33.7937 40.3406L33.7424 40.3692L33.3318 40.5991L34.4579 42.6157L35.6889 41.9284L35.5489 41.6759C35.5491 41.6761 34.8675 42.0558 34.7803 42.1063Z" fill="white"/>
<path d="M36.5162 38.5315L36.4687 38.5664L36.2799 38.7051L37.2542 40.0324C37.3194 40.1218 37.345 40.211 37.3311 40.2983C37.3079 40.4564 37.1639 40.5778 37.1035 40.6209C37.0344 40.673 36.908 40.7161 36.7869 40.6965C36.6841 40.6813 36.5999 40.627 36.5324 40.5365L35.5706 39.2246L35.1445 39.5388L36.1001 40.8414C36.2286 41.0171 36.3856 41.1207 36.5661 41.1474C36.8506 41.1904 37.1177 41.032 37.252 40.9341C37.7131 40.5951 37.7193 40.171 37.52 39.9012L36.5162 38.5315Z" fill="white"/>
<path d="M39.6613 37.8758C39.4825 37.6908 39.2536 37.6486 39.0163 37.7399C39.0351 37.6846 39.0463 37.6281 39.0463 37.5717C39.0463 37.4345 38.9917 37.3006 38.8818 37.1876C38.7331 37.0346 38.348 36.8456 37.9541 37.2286L37.2578 37.9031L38.8652 39.5625L39.577 38.8724C39.7564 38.7 39.8501 38.5142 39.8523 38.3263C39.8552 38.1622 39.7885 38.007 39.6613 37.8758ZM38.6233 37.8037C38.6233 37.92 38.5476 38.0154 38.4866 38.075C38.4866 38.075 38.3799 38.1787 38.3196 38.238C38.2547 38.1714 37.8822 37.7876 37.8184 37.7195C37.8617 37.6777 37.9297 37.6129 37.9297 37.6129C38.1472 37.401 38.3382 37.387 38.5135 37.5687C38.5938 37.6521 38.6233 37.7308 38.6233 37.8037ZM39.066 39.0079C39.0002 38.94 38.5659 38.4906 38.4992 38.4227C38.5566 38.3675 38.7053 38.2228 38.7053 38.2228C38.989 37.9495 39.2765 38.2392 39.2887 38.2526C39.3781 38.3449 39.422 38.4322 39.422 38.5191C39.422 38.5207 39.422 38.5216 39.422 38.5224C39.4208 38.6178 39.3655 38.7177 39.2606 38.8214C39.2608 38.8214 39.1223 38.9546 39.066 39.0079V39.0079Z" fill="white"/>
<path d="M13.8373 8.18937L12.8672 8.451L12.9786 8.79847C13.1126 9.21975 12.9913 9.66082 12.6629 9.94881C12.4802 10.109 12.2693 10.1825 12.0366 10.1665C11.6831 10.1428 11.2841 9.91397 10.9696 9.55408C10.599 9.12957 10.4141 8.72091 10.4377 8.37456C10.454 8.12201 10.5768 7.90016 10.8124 7.69376C11.0726 7.46586 11.4026 7.47474 11.8502 7.5635L12.1823 7.62914L12.3969 6.70004L12.0627 6.61855C11.344 6.44073 10.5946 6.61541 10.0599 7.08345C9.01276 7.99973 8.92733 9.49612 9.86128 10.5642C10.7292 11.5564 12.2351 11.6645 13.2166 10.806C13.9235 10.1885 14.1698 9.39848 13.9297 8.5237L13.8373 8.18937Z" fill="#EFB930"/>
<path d="M16.4719 3.32369L15.481 3.79031C15.481 3.79031 16.0342 4.96256 16.2243 5.36658C15.9417 5.49946 15.6679 5.62882 15.385 5.76241C15.1941 5.3587 14.6407 4.18594 14.6407 4.18594L13.3359 4.8019L15.323 9.01673L16.6288 8.40107C16.6288 8.40107 16.0132 7.09744 15.8151 6.67475C16.098 6.54236 16.3715 6.41311 16.655 6.27962C16.8536 6.7011 17.4685 8.00493 17.4685 8.00493L18.774 7.38886L16.7876 3.17505L16.4719 3.32369Z" fill="#EFB930"/>
<path d="M20.8888 5.93477C20.8252 5.62093 20.7606 5.30164 20.6978 4.9882C21.1009 4.90712 22.1721 4.69082 22.1721 4.69082L21.9836 3.75465C21.9836 3.75465 20.912 3.97125 20.5086 4.05274C20.4505 3.76576 20.4024 3.52473 20.344 3.23815C20.7626 3.15373 21.9089 2.92209 21.9089 2.92209L21.72 1.98633L21.3771 2.05519L18.7402 2.58846L19.6621 7.1564L22.666 6.54912L22.4772 5.61386C22.4772 5.61386 21.3103 5.84904 20.8888 5.93477Z" fill="#EFB930"/>
<path d="M25.1495 1.87813L23.7049 1.84814L23.6977 2.19652L23.6074 6.50686L26.6398 6.57048L26.6615 5.56121C26.6615 5.56121 25.4973 5.53616 25.0719 5.52748C25.084 4.95695 25.1494 1.87813 25.1494 1.87813" fill="#EFB930"/>
<path d="M29.8306 4.22806C29.4559 3.9528 29.3462 3.84243 29.3841 3.69207C29.4027 3.61412 29.4876 3.36521 29.7568 3.43185C29.9188 3.47346 30.0799 3.55878 30.1517 3.90736L30.2306 4.29431L31.1844 3.97198L31.1251 3.67168C31.0077 3.08186 30.5089 2.5798 29.8827 2.42339C29.4343 2.31201 28.9847 2.37158 28.6158 2.59323C28.2771 2.7961 28.0389 3.1163 27.9447 3.49527C27.7052 4.45052 28.3492 4.91047 28.7749 5.21523C29.2114 5.52735 29.3224 5.64953 29.2558 5.91026C29.2349 5.99175 29.1869 6.05607 29.1118 6.10161C29.0244 6.15301 28.9148 6.17159 28.8256 6.14836C28.5963 6.09192 28.497 5.98357 28.4004 5.687L28.2832 5.33145L27.3262 5.72284L27.4189 6.02669C27.5983 6.6171 28.0267 6.98921 28.7276 7.16481C29.5155 7.36192 30.4712 6.99961 30.7093 6.05365C30.9577 5.05689 30.2794 4.55745 29.8306 4.22806Z" fill="#EFB930"/>
<path d="M33.2769 6.71346C33.6446 6.89926 34.619 7.39203 34.619 7.39203L35.05 6.53998C35.05 6.53998 34.0748 6.04721 33.7083 5.86201C33.8395 5.60068 33.9507 5.38095 34.0816 5.12013C34.4619 5.31219 35.5071 5.84041 35.5071 5.84041L35.9369 4.98835L33.2245 3.61768L33.0677 3.92818L31.1221 7.77635L33.8572 9.15774L34.2884 8.30619C34.2884 8.30619 33.2257 7.76929 32.8416 7.57591C32.9854 7.28994 33.1332 6.99953 33.2769 6.71346Z" fill="#EFB930"/>
<path d="M38.6792 7.14873L34.333 9.39761L35.1645 10.1207C35.1645 10.1207 35.8818 9.73932 36.1425 9.6024C36.3364 9.77123 36.6222 10.0198 36.8129 10.1855C36.7194 10.4628 36.4537 11.2425 36.4537 11.2425L37.5992 12.2391L39.4574 6.75977L38.6792 7.14873Z" fill="#EFB930"/>
<path d="M13.6743 8.47308L13.162 8.61233L13.1996 8.72825C13.3624 9.2396 13.2155 9.77448 12.8152 10.1246C12.5852 10.3263 12.3171 10.4187 12.021 10.3996C11.6011 10.3715 11.1546 10.1194 10.7942 9.70723C10.3821 9.23546 10.1778 8.76904 10.2049 8.35826C10.2261 8.04634 10.379 7.76381 10.6593 7.51863C11.0274 7.19682 11.4907 7.25569 11.8954 7.33576L12.0065 7.35728L12.1186 6.87168L12.0072 6.84391C11.3614 6.68537 10.6912 6.84038 10.2128 7.25923C9.2662 8.08826 9.19016 9.44227 10.0366 10.4109C10.8199 11.3065 12.1777 11.4047 13.0641 10.6306C13.7068 10.0669 13.9228 9.37967 13.7051 8.58568L13.6743 8.47309" fill="white"/>
<path d="M16.5704 3.533L15.7908 3.90157C15.7908 3.90157 16.4471 5.29416 16.5334 5.47723C16.3666 5.5563 15.4406 5.99323 15.2726 6.07169C15.1865 5.88832 14.5306 4.49583 14.5306 4.49583L13.6445 4.91327L15.4334 8.70651L16.3188 8.28968C16.3188 8.28968 15.5926 6.75027 15.5052 6.56396C15.6731 6.48489 16.5979 6.04907 16.7659 5.9697C16.8531 6.1555 17.5795 7.69582 17.5795 7.69582L18.4639 7.27798L16.6752 3.48413L16.5704 3.533Z" fill="white"/>
<path d="M20.7068 6.20872C20.6704 6.02646 20.4608 4.9886 20.4244 4.80634C20.6184 4.76736 21.8985 4.50866 21.8985 4.50866L21.8017 4.02941C21.8017 4.02941 20.522 4.28701 20.3269 4.32649C20.2915 4.14776 20.1068 3.23461 20.0713 3.05609C20.2668 3.016 21.6354 2.74043 21.6354 2.74043L21.5383 2.26099L19.0149 2.77022L19.8449 6.88164L22.3925 6.36736L22.2957 5.88791C22.2955 5.88802 20.9039 6.16883 20.7068 6.20872Z" fill="white"/>
<path d="M24.9117 2.10616L23.9334 2.08496L23.9314 2.20048L23.8447 6.27868L26.4129 6.33311L26.4243 5.78873C26.4243 5.78873 25.034 5.75935 24.8349 5.75511C24.84 5.5375 24.9118 2.10617 24.9118 2.10617" fill="white"/>
<path d="M29.8135 3.20706C30.1245 3.28491 30.3041 3.49273 30.3803 3.86079L30.4067 3.98944L30.917 3.81697L30.8977 3.71629C30.7969 3.21373 30.3669 2.78437 29.8269 2.64855C29.4386 2.55171 29.0519 2.60251 28.7365 2.79184C28.4513 2.9633 28.2501 3.23342 28.1708 3.552C27.9699 4.35326 28.4922 4.72648 28.911 5.02588C29.335 5.32911 29.5906 5.53612 29.4817 5.96618C29.4385 6.14522 29.3216 6.24751 29.2314 6.30133C29.0917 6.38504 28.9202 6.41119 28.7695 6.37423C28.4603 6.29668 28.301 6.13037 28.1802 5.75938L28.1409 5.64083L27.6113 5.85682L27.6421 5.95851C27.796 6.46451 28.1701 6.78532 28.7858 6.93941C29.4622 7.10835 30.2818 6.80228 30.4838 5.99658C30.6942 5.1521 30.1398 4.74344 29.6912 4.41546C29.3104 4.13434 29.0804 3.94642 29.1586 3.63581C29.2272 3.35812 29.4571 3.1178 29.8135 3.20706" fill="white"/>
<path d="M33.9793 4.80824C34.1578 4.89801 35.4033 5.5274 35.4033 5.5274L35.6249 5.09047L33.3277 3.92993L33.2751 4.03353L31.4355 7.6739L33.7543 8.84574L33.9752 8.40901C33.9752 8.40901 32.7093 7.76891 32.5299 7.67793C32.6136 7.51172 33.0913 6.56788 33.1743 6.40157C33.351 6.49083 34.516 7.07954 34.516 7.07954L34.738 6.6426C34.738 6.6426 33.5718 6.05441 33.3951 5.96464C33.4773 5.80247 33.8973 4.97041 33.9793 4.80824Z" fill="white"/>
<path d="M38.7858 7.35577L34.7441 9.44743L35.1958 9.84013C35.1958 9.84013 36.0529 9.38573 36.1742 9.32151C36.2748 9.40936 36.9851 10.0273 37.0836 10.1131C37.0408 10.2408 36.7233 11.169 36.7233 11.169L37.4903 11.8359L39.052 7.23096L38.7858 7.35577ZM36.6421 9.08088C36.8333 8.98202 37.3217 8.72826 37.6196 8.57326C37.5087 8.88993 37.3259 9.41138 37.2559 9.61434C37.1009 9.47863 36.7973 9.21487 36.6421 9.08088Z" fill="white"/>
<path d="M35.9659 23.3703C35.6344 22.4924 34.493 22.111 33.4141 22.5183C32.9642 22.6875 32.5957 22.9705 32.3445 23.3045C33.0569 21.2712 35.9588 20.8397 35.9588 18.9481C35.9588 15.7775 31.4562 16.6656 32.1113 18.9486C32.1113 17.9127 33.7599 17.7229 33.7599 18.9486C33.7599 20.1744 30.8854 20.9783 30.8854 23.0493C30.8854 25.3323 33.1688 25.5435 32.9376 27.6316C32.8984 27.9916 32.5112 28.4646 31.9508 28.4646C28.4534 28.4646 29.7019 24.1593 28.4799 22.8493L28.5438 21.9647C29.2502 22.3979 31.1245 21.3831 29.8906 19.8361C29.8906 20.5968 28.3065 20.5547 28.3065 19.1174C28.3065 17.1726 30.1247 18.1874 30.2131 18.6169C30.1259 17.9086 30.093 17.4591 30.2099 17.051C29.2297 17.3671 29.138 16.8005 29.262 16.5812C29.404 16.3277 29.594 16.0315 29.9759 16.0315C30.1823 16.0315 30.3062 16.0603 30.3792 16.1106C30.5012 16.1941 30.5905 16.0033 30.573 16.1808C30.678 16.0211 30.6359 16.2205 30.7371 16.0603C30.8402 15.9013 30.9791 15.7214 31.223 15.4818L31.2125 15.123L31.4981 15.2277L31.7723 14.7843C31.4764 14.1709 31.0749 14.4664 30.7792 13.7058C30.5319 13.6416 26.6805 14.0604 26.7922 12.5241C26.4782 12.5241 25.7343 12.6961 26.1946 13.3217C25.8367 13.3648 25.5787 12.9583 25.039 14.0578C25.715 13.9311 25.3651 14.6867 25.3651 14.9017C25.3651 16.2948 23.5105 16.2712 23.5105 15.6187C23.0636 16.053 23.3172 17.0027 23.9931 17.2367C23.9931 17.2367 23.736 18.2525 23.1015 18.8966C22.1596 18.859 20.6484 18.6953 19.7791 17.8736C19.4042 17.5194 19.1065 17.3265 18.8529 17.2273V16.7668C19.2241 16.5852 19.6312 16.2637 20.0542 15.7264C20.3842 15.3234 20.5628 14.8066 20.5147 14.2577C20.5085 14.1922 20.4988 14.1275 20.4873 14.0644C20.4837 14.0443 20.4788 14.0248 20.4741 14.0048C20.4648 13.9606 20.4541 13.9182 20.4413 13.8744C20.4351 13.8533 20.4294 13.8317 20.4227 13.8108C20.4084 13.767 20.3926 13.7251 20.3756 13.6835C20.3684 13.666 20.3634 13.6474 20.355 13.6311C20.3314 13.575 20.3052 13.5223 20.2768 13.4692C20.2647 13.4477 20.2519 13.4276 20.2401 13.4078C20.2206 13.3759 20.2021 13.3436 20.1816 13.3128C20.165 13.2884 20.1477 13.2636 20.1302 13.239C20.1122 13.2154 20.0932 13.1913 20.0748 13.1677C20.0542 13.1424 20.0341 13.1157 20.0122 13.0906C19.9976 13.0741 19.9819 13.0581 19.9665 13.0429C19.9116 12.9822 19.852 12.9257 19.7898 12.8718C19.7846 12.8674 19.7785 12.8616 19.7724 12.857C19.7377 12.8273 19.7006 12.7989 19.6642 12.7718C19.6549 12.7648 19.6452 12.7579 19.6348 12.7507C19.5958 12.7232 19.5559 12.6963 19.5143 12.6707C19.5118 12.6691 19.5095 12.6681 19.5077 12.6662C19.1118 12.4239 18.6335 12.2971 18.1283 12.3371C16.9119 12.434 16.0078 13.4503 16.1093 14.6073C16.1884 15.5088 16.8533 16.2287 17.7176 16.4584C17.4144 16.6276 17.1582 16.7252 17.1003 16.7252C17.1099 16.7314 17.1225 16.7386 17.1361 16.7474C17.1396 16.749 17.1438 16.7515 17.148 16.7536C17.1597 16.7612 17.1737 16.769 17.1879 16.7766C17.1914 16.7787 17.1958 16.7807 17.1992 16.7828C17.2187 16.7926 17.2388 16.8028 17.2614 16.8136C17.2649 16.8152 17.2692 16.8165 17.2727 16.8182C17.2927 16.8275 17.3131 16.8372 17.3347 16.8455C17.3409 16.8483 17.3476 16.8509 17.3542 16.8531C17.4071 16.8752 17.4667 16.8951 17.5318 16.9137C17.5411 16.9162 17.5509 16.9183 17.5589 16.9209C17.5853 16.9275 17.612 16.9337 17.6397 16.9403C17.6488 16.9419 17.6581 16.9439 17.6679 16.9459C17.7028 16.9521 17.7393 16.9583 17.776 16.9627C17.7791 16.9627 17.7823 16.9643 17.7853 16.9643V17.2262C17.7716 17.2292 17.7591 17.2306 17.7463 17.2326C17.3507 17.2978 17.0936 17.4196 16.9774 17.7718C16.8618 18.1253 16.9805 18.253 17.1658 18.501C17.0093 18.7808 16.5991 18.8855 17.1344 19.5036C17.0954 19.7371 17.1448 20.1089 17.4846 20.2217C17.5954 20.2593 17.6878 20.2793 17.7853 20.2961L17.7848 24.9306C17.4459 25.1101 17.2787 25.3341 17.1862 25.5428C17.1862 25.5428 16.9142 24.9389 16.9322 26.1353C17.2413 25.8954 17.1196 26.413 17.1196 26.413C16.6987 26.9582 17.2333 26.9286 17.2333 26.9286C17.5958 26.5665 17.5219 27.0927 17.5219 27.0927C17.5219 27.7345 17.7825 27.9856 17.7847 27.9866V31.5173L17.4768 31.5182L17.4798 32.4924L18.0182 32.4915C17.7161 32.6169 17.5167 32.9153 17.5458 33.2451C17.5824 33.6609 17.9664 33.9697 18.4037 33.936C18.8407 33.9009 19.1654 33.5364 19.1281 33.1197C19.1034 32.8321 18.9129 32.5975 18.6537 32.4896L19.1506 32.4882L19.1485 31.514L18.8522 31.5154L18.8527 28.3828C18.9138 28.4164 18.9798 28.4396 19.0515 28.4552C19.0801 28.4606 19.1085 28.4645 19.1376 28.4664C19.1505 28.4685 19.1638 28.4685 19.1766 28.4689C19.0969 28.0571 19.3429 27.7841 19.3429 27.7841C19.4692 27.594 19.6519 27.4458 19.8598 27.3411C20.4816 27.0292 21.33 27.1081 21.5835 27.6159C23.1902 27.1924 24.5709 25.5775 24.5709 25.5775L25.3617 26.9235C23.685 27.4841 20.0328 30.6591 22.568 31.7587C22.567 32.0788 22.5241 34.4544 21.0008 34.2657C18.8069 33.9955 18.2598 34.9032 18.6811 35.9236C18.4831 36.784 19.1457 37.0827 19.1457 37.0827C19.0463 36.5857 19.2853 36.1739 20.192 36.1791C20.1873 37.0858 20.7729 37.2493 20.7729 37.2493C20.777 36.4729 21.3165 36.1853 21.7959 36.1874C21.7924 36.8272 22.5356 37.0704 22.5356 37.0704C22.5356 37.0704 22.3472 36.333 23.1875 36.1874C25.3145 35.8168 23.3168 33.6292 26.5514 33.0264C26.5514 33.0264 24.9407 32.7836 24.9407 31.903C24.9407 31.1016 26.3988 30.5536 26.9007 30.5536C27.9302 32.5205 29.0486 32.5361 29.3418 32.5501C29.7977 33.0593 29.6449 34.7758 28.9867 34.742C26.5773 34.6127 26.6654 36.0783 26.9355 36.3781C26.9047 36.947 27.3473 37.2756 27.3473 37.2756C27.3473 36.6658 27.9275 36.4943 28.6716 36.5346C28.6325 37.2795 29.1071 37.3908 29.1071 37.3908C29.1201 36.6411 29.6747 36.514 30.0687 36.5346C30.0399 37.06 30.5614 37.2147 30.5614 37.2147C30.5614 37.2147 30.5101 36.5478 31.2121 36.5478C32.5438 36.5469 30.6097 33.693 33.2088 30.8704C30.9257 31.9273 29.711 29.2855 29.711 28.7785C30.8845 30.1517 34.6892 30.4258 34.6892 28.0801C34.6892 25.8392 32.2262 25.0042 33.3786 24.1471C34.0488 23.6488 35.3667 24.6555 34.6126 25.6955C35.694 25.2948 36.2965 24.2477 35.9657 23.3703L35.9659 23.3703ZM21.3723 23.441C20.5115 23.9471 19.9345 24.5874 19.1498 24.8675C19.0306 24.9093 18.9356 24.9212 18.853 24.9159V20.5419C19.0609 20.5614 19.6004 20.6352 20.2312 20.896C20.856 21.2369 20.856 21.9416 20.0675 22.1086C20.5659 23.0627 22.2921 22.5956 22.6683 21.8185C22.8526 21.8021 23.0155 22.1311 23.1687 22.4421C22.9264 22.5679 22.4307 22.8179 21.3723 23.441ZM31.0065 16.19C30.9118 16.3185 30.8185 16.4462 30.7367 16.5557C30.955 16.9185 31.3657 17.1453 31.8156 17.1037C32.4375 17.0448 32.8952 16.4929 32.838 15.8705C32.8347 15.8478 32.8316 15.8274 32.8285 15.8053C32.7619 16.1276 32.382 16.4006 31.8988 16.4452C31.533 16.4796 31.2018 16.3745 31.0065 16.19H31.0065Z" fill="#373A3B"/>
<path d="M30.04 15.859C30.2567 16.2218 30.6684 16.4486 31.1183 16.4067C31.7411 16.3485 32.1976 15.7963 32.1407 15.1731C32.1384 15.1511 32.1343 15.1299 32.1314 15.1079C32.0654 15.4298 31.6837 15.7035 31.2015 15.7482C30.8346 15.7825 30.5039 15.6773 30.3087 15.493C30.2145 15.6219 30.1201 15.7495 30.04 15.859" fill="#F14B51"/>
<path d="M26.7085 11.1062C26.6906 11.1062 26.6725 11.1132 26.6512 11.1205C26.2603 11.203 25.0603 12.0289 25.4983 12.6243C25.1388 12.6668 24.304 12.4204 23.7654 13.5194C24.442 13.392 24.6677 13.9915 24.6677 14.2068C24.6677 15.0223 24.0342 15.3494 23.5077 15.3525C23.1552 15.3534 22.853 15.2099 22.8202 14.9658C22.8217 14.9586 22.8186 14.9516 22.8202 14.9443C22.8198 14.9436 22.8131 14.9453 22.8131 14.9443H22.7987C22.3789 15.3873 22.6339 16.3106 23.3 16.5412C23.3 16.5412 23.0395 17.5583 22.4049 18.2025C21.7732 18.1779 20.8912 18.092 20.1135 17.7943C19.8958 17.7115 19.6897 17.6076 19.4977 17.4864C19.3494 17.3945 19.2073 17.2961 19.0823 17.1785C18.7076 16.8243 18.4118 16.6321 18.1586 16.534V16.0686C18.5298 15.8865 18.9386 15.5676 19.3616 15.0303C19.6921 14.6277 19.8682 14.1115 19.8199 13.5623C19.8147 13.4967 19.8043 13.4332 19.7913 13.369C19.7883 13.349 19.7812 13.3317 19.7769 13.3117C19.7672 13.2675 19.761 13.2182 19.7483 13.1756C19.7425 13.1539 19.7344 13.1327 19.7268 13.1112C19.7129 13.0674 19.693 13.0311 19.6767 12.9895C19.6694 12.9718 19.6696 12.9496 19.6624 12.9322C19.6382 12.8772 19.6115 12.8264 19.5836 12.7746C19.5725 12.7525 19.5594 12.7313 19.5478 12.7102C19.5283 12.6785 19.5036 12.6479 19.4833 12.6171C19.4665 12.5925 19.4513 12.57 19.4332 12.5455C19.4153 12.522 19.395 12.4965 19.3759 12.4739C19.3555 12.4471 19.3408 12.4202 19.3186 12.3951C19.3043 12.3786 19.284 12.3608 19.2685 12.345C19.213 12.2849 19.1587 12.2261 19.0967 12.1731C19.0904 12.1681 19.0813 12.1633 19.0752 12.1588C19.0403 12.1295 19.0052 12.0996 18.9678 12.0729C18.9579 12.0664 18.9488 12.0581 18.9391 12.0514C18.8995 12.0232 18.8592 11.9986 18.8174 11.9726C18.815 11.9715 18.8126 11.9735 18.8102 11.9726C18.4146 11.7291 17.9404 11.6038 17.4354 11.6433C17.3266 11.6519 17.2167 11.6713 17.1132 11.6934C16.0618 11.9263 15.3233 12.86 15.4161 13.9132C15.4947 14.8053 16.1408 15.5163 16.9914 15.7535C17.0001 15.7559 17.011 15.7584 17.0201 15.7607C16.7162 15.9299 16.4624 16.0256 16.4042 16.0256C16.4141 16.0319 16.4262 16.045 16.44 16.0542C16.4436 16.0558 16.4503 16.052 16.4544 16.0542C16.4666 16.0613 16.4748 16.0747 16.4902 16.0829C16.4939 16.0849 16.5003 16.0815 16.5045 16.0829C16.5227 16.0926 16.5398 16.1079 16.5618 16.1187C16.5658 16.1198 16.573 16.1236 16.5761 16.1259C16.5954 16.1349 16.618 16.1381 16.6405 16.1473C16.6467 16.15 16.6482 16.152 16.6549 16.1545C16.7089 16.1758 16.768 16.2006 16.8339 16.2189C16.843 16.221 16.8532 16.2235 16.8625 16.2261C16.8881 16.2328 16.9136 16.2347 16.9413 16.2404C16.9506 16.2429 16.9602 16.2455 16.9699 16.2476C17.0048 16.2543 17.0397 16.2645 17.0773 16.2691C17.08 16.2691 17.089 16.2672 17.0917 16.2691V16.5268C17.0793 16.5287 17.062 16.5315 17.0487 16.534C16.654 16.5986 16.3984 16.7254 16.2825 17.0782C16.167 17.4317 16.2835 17.5606 16.4687 17.8086C16.3111 18.0874 15.9058 18.1925 16.44 18.8111C16.4021 19.0441 16.4515 19.4142 16.7909 19.5272C16.9021 19.5647 16.9946 19.5814 17.0917 19.5988V24.2318C16.7524 24.4116 16.582 24.6387 16.4902 24.8476C16.4902 24.8476 15.8416 24.7605 15.86 25.9575C16.1689 25.7165 16.4257 25.714 16.4257 25.714C16.0054 26.2588 16.304 26.7595 16.304 26.7595C16.6664 26.3965 16.8267 26.3943 16.8267 26.3943C16.8267 27.0386 17.0917 27.2894 17.0917 27.2894C17.0917 27.1923 17.0968 27.1041 17.1132 27.0173C17.0968 27.1041 17.0917 27.1923 17.0917 27.2894V30.8196H16.7838V31.2707V31.7935H17.3208C17.2551 31.8209 17.1958 31.8579 17.1418 31.9009C16.9558 32.0424 16.8414 32.2611 16.8482 32.5024V32.5453C16.8852 32.9621 17.2696 33.2759 17.7075 33.2399C18.144 33.2058 18.4668 32.8393 18.4307 32.4236C18.4052 32.1372 18.2172 31.9013 17.9581 31.7935H18.4522V30.8196H18.1586V27.6832C18.2202 27.7151 18.2818 27.741 18.352 27.7548C18.382 27.7617 18.4159 27.7658 18.445 27.7691C18.4579 27.7693 18.468 27.7687 18.4808 27.7691C18.4012 27.3576 18.6455 27.0889 18.6455 27.0889C18.7729 26.8983 18.9541 26.7497 19.1611 26.6449C19.7836 26.3328 20.6333 26.4094 20.8868 26.917C22.4936 26.4941 23.8729 24.8834 23.8729 24.8834L24.6677 26.2224C22.9905 26.7838 19.34 29.9625 21.875 31.0631C21.8739 31.3822 21.8294 33.756 20.3068 33.5693C18.1135 33.2979 17.5658 34.2031 17.9868 35.2234C17.788 36.0849 18.4522 36.3835 18.4522 36.3835C18.3531 35.8871 18.5912 35.4769 19.4977 35.4812C19.4928 36.3877 20.0777 36.5553 20.0777 36.5553C20.0808 35.7779 20.6217 35.4856 21.1017 35.4884C21.0985 36.1282 21.8392 36.3763 21.8392 36.3763C21.8392 36.3763 21.6497 35.634 22.4908 35.4884C24.6171 35.1178 22.6215 32.9343 25.8564 32.3305C25.8564 32.3305 24.2452 32.0877 24.2452 31.2063C24.2452 30.4061 25.6989 29.8601 26.2001 29.8601C26.2005 29.8612 26.2067 29.8589 26.2072 29.8601C27.2366 31.8183 28.3567 31.8357 28.649 31.8507C29.1046 32.359 28.9492 34.0765 28.291 34.0419C25.8816 33.9136 25.966 35.3819 26.2359 35.6817C26.2059 36.2515 26.6512 36.5768 26.6512 36.5768C26.6512 35.9666 27.2318 35.8 27.9759 35.8393C27.9359 36.5835 28.4127 36.6914 28.4127 36.6914C28.4238 35.9416 28.9776 35.8185 29.3723 35.8393C29.3447 36.3659 29.8664 36.5195 29.8664 36.5195C29.8664 36.5195 29.8164 35.8544 30.518 35.8536C31.8502 35.8536 29.9152 32.9976 32.5158 30.1751C30.2328 31.2325 29.0142 28.5913 29.0142 28.0842C30.1879 29.4579 33.9981 29.7276 33.9981 27.3825C33.9981 25.4903 32.2415 24.5993 32.3869 23.8522C32.4136 23.715 32.5019 23.5847 32.6805 23.4512C33.3516 22.9524 34.6696 23.9596 33.9193 24.998C34.9997 24.5972 35.6023 23.5479 35.2727 22.6707C34.9402 21.7928 33.7945 21.4116 32.7163 21.8186C32.2646 21.9891 31.9003 22.2716 31.6494 22.6063C32.3606 20.5731 35.2655 20.145 35.2655 18.2526C35.2655 15.082 30.7579 15.9696 31.4131 18.2526C31.4131 18.2182 31.416 18.1853 31.4202 18.1523C31.4266 18.0931 31.4391 18.0404 31.456 17.9876C31.7093 17.1963 33.0672 17.1404 33.0672 18.2526C33.0672 19.4785 30.1886 20.2838 30.1886 22.3557C30.1886 24.6387 32.4746 24.8441 32.2437 26.9313C32.2046 27.2926 31.8159 27.7691 31.2555 27.7691C30.0538 27.7691 29.4092 27.2583 29.0357 26.5375C28.3231 25.1609 28.5849 23.0144 27.7826 22.1552L27.847 21.2672C28.5539 21.7009 30.4319 20.6875 29.2004 19.1405C29.2004 19.9021 27.6107 19.854 27.6107 18.4173C27.6107 16.4724 29.4271 17.4941 29.5155 17.9232C29.4282 17.2153 29.3961 16.7616 29.5155 16.355C28.5343 16.6701 28.441 16.1022 28.5631 15.8824C28.7067 15.6283 28.898 15.331 29.2792 15.331C29.8302 15.331 29.7951 15.533 29.7661 15.8179C29.9765 15.4997 30.0354 15.2657 30.5251 14.7868L30.518 14.4288L30.8044 14.529L31.0765 14.0851C30.7811 13.4716 30.3781 13.7721 30.0812 13.0109C29.835 12.9463 26.5964 12.6431 26.7085 11.1062ZM25.9996 12.2877C26.0122 12.369 26.0391 12.4515 26.0855 12.524C26.0391 12.4515 26.0122 12.369 25.9996 12.2877ZM17.5714 13.2114C17.8733 13.1873 18.14 13.4028 18.1658 13.6912C18.1908 13.9782 17.9669 14.233 17.6645 14.2569C17.3616 14.2812 17.0943 14.0652 17.0702 13.7771C17.0635 13.7007 17.0731 13.6304 17.0988 13.5623C17.0988 13.5607 17.0981 13.5558 17.0988 13.5552C17.1018 13.5449 17.1098 13.5366 17.1132 13.5265C17.1922 13.3572 17.3636 13.2283 17.5714 13.2114ZM24.9112 13.5122C24.9473 13.5725 24.9736 13.6416 24.9971 13.7127C24.9736 13.6416 24.9473 13.5725 24.9112 13.5122ZM22.7987 15.3167C22.8175 15.4279 22.8583 15.5268 22.9133 15.6174C22.8584 15.5267 22.8173 15.4281 22.7987 15.3167ZM23.9874 16.8061C23.9093 17.0175 23.7993 17.2715 23.6795 17.5293C23.7993 17.2715 23.9093 17.0175 23.9874 16.8061ZM32.0361 17.2716C31.9054 17.3416 31.7825 17.4344 31.6852 17.5437C31.7832 17.4326 31.9036 17.3424 32.0361 17.2716ZM33.5613 17.4434C33.6109 17.4981 33.652 17.5611 33.6902 17.6296C33.652 17.5611 33.6109 17.4981 33.5613 17.4434ZM18.1586 19.8423C18.3665 19.8623 18.9037 19.9405 19.5335 20.2003C19.5407 20.2038 19.5487 20.2033 19.555 20.2074C20.1606 20.5528 20.1485 21.2467 19.3688 21.4104C19.8662 22.3654 21.5991 21.9011 21.9753 21.124C22.1586 21.1077 22.3159 21.4365 22.4694 21.747C22.2275 21.873 21.7371 22.1192 20.6792 22.7423C19.8183 23.249 19.2371 23.8877 18.4522 24.1673C18.3326 24.2106 18.2406 24.222 18.1586 24.2174V19.8423ZM23.0351 19.8924C22.9998 19.9922 22.9535 20.0867 22.8918 20.1716C22.9535 20.0867 22.9998 19.9922 23.0351 19.8924ZM18.6527 24.6471C18.552 24.6674 18.4662 24.6829 18.3878 24.6829C18.4662 24.6829 18.552 24.6674 18.6527 24.6471ZM16.7694 24.8977C16.7475 24.9135 16.7279 24.9368 16.7122 24.955C16.7297 24.9337 16.7436 24.9158 16.7694 24.8977ZM16.1393 25.4061C16.06 25.4953 15.9881 25.5887 15.9388 25.6854C15.9873 25.5902 16.0615 25.4943 16.1393 25.4061ZM33.0672 26.8311C33.071 26.8912 33.0743 26.9544 33.0743 27.0173C33.0743 27.0484 33.0665 27.093 33.06 27.1462C33.0665 27.093 33.0672 27.0484 33.0672 27.0173C33.0672 26.952 33.0713 26.8934 33.0672 26.8311H33.0672ZM32.8237 27.7691C32.796 27.8079 32.7648 27.8466 32.7306 27.8837C32.7634 27.8478 32.797 27.8065 32.8237 27.7691ZM17.3137 31.8651C17.3474 31.8651 17.3821 31.8729 17.4139 31.8794C17.3821 31.8729 17.3474 31.8722 17.3137 31.8722C17.2834 31.8722 17.2561 31.8738 17.2277 31.8794C17.2561 31.8737 17.2836 31.8651 17.3137 31.8651Z" fill="#045FC6"/>
<path d="M28.5284 13.759L28.9195 13.7796L28.7238 14.048C28.7237 14.048 28.4626 14.1306 28.5284 13.759ZM27.5955 13.759H28.1589C28.1589 13.759 28.1386 14.2137 28.55 14.2544L28.4627 14.3992C28.4626 14.3992 27.357 14.1102 27.5955 13.759Z" fill="white"/>
<path d="M17.9182 17.6437C17.9376 17.5704 17.2541 17.1705 16.8823 17.0731C16.7257 17.0326 16.605 17.2209 16.5856 17.2944C16.5666 17.3682 16.5794 17.5916 16.7355 17.6326C17.1076 17.73 17.8992 17.7172 17.9182 17.6437V17.6437ZM17.8621 18.3259C17.8679 18.2566 17.1862 18.0114 16.8345 17.9851C16.6872 17.9743 16.6097 18.1647 16.605 18.2334C16.6001 18.3034 16.6487 18.5025 16.7961 18.5129C17.1472 18.5389 17.8577 18.3963 17.8621 18.3259ZM17.0881 16.2688V16.5301C17.1881 16.6302 17.5526 16.7476 17.5942 16.7476V16.2301C17.5943 16.2302 17.3202 16.2876 17.0881 16.2688ZM16.9454 18.8182C16.8387 18.8224 16.7986 18.964 16.8012 19.0149C16.8022 19.0651 16.8531 19.2042 16.9599 19.2001C17.2138 19.191 17.7118 19.0311 17.7097 18.9813C17.7077 18.9314 17.1995 18.8094 16.9454 18.8182ZM16.4224 25.7169C16.002 26.2616 16.3047 26.7586 16.3047 26.7586C16.3047 26.3792 16.7375 25.8909 16.8341 25.7955C16.8341 25.7956 16.6858 25.7169 16.4224 25.7169ZM17.7636 26.8727C17.6989 27.2087 17.8662 27.536 18.1557 27.6864C18.2173 27.7184 18.2841 27.7436 18.3543 27.7574C18.3844 27.7643 18.4126 27.7679 18.4417 27.7713C18.4546 27.7715 18.4675 27.7717 18.4803 27.7722C18.4803 27.7722 18.0546 27.3736 18.2257 26.9969C18.1147 26.9206 17.949 26.8726 17.7636 26.8726V26.8727ZM16.9942 15.7539C16.3567 15.4428 15.9035 14.6631 15.9035 13.749C15.9035 12.7789 16.4131 11.959 17.1134 11.6906C16.062 11.9236 15.3203 12.8579 15.4131 13.9111C15.4918 14.8033 16.1436 15.5167 16.9942 15.7539ZM23.7622 13.5163C24.4387 13.389 24.6682 13.9905 24.6682 14.2058C24.6682 15.0213 24.0331 15.3499 23.5066 15.353V15.3535C25.9488 15.3535 25.0882 12.1906 23.7622 13.5164V13.5163ZM22.1298 20.5347C23.297 20.5347 23.2185 19.0102 22.9661 18.7576C23.3406 18.3833 24.1112 16.6664 24.1112 16.3492C24.1112 16.3492 22.5707 16.017 22.8167 14.948C22.8163 14.9473 22.8163 14.9468 22.8163 14.9459L22.7957 14.9422C22.3758 15.3852 22.6311 16.3091 23.2971 16.5396C23.2971 16.5396 23.04 17.5555 22.4055 18.1996C21.7738 18.1751 20.8883 18.092 20.1105 17.7943C21.3128 18.4324 22.5508 19.3967 22.1298 20.5347L22.1298 20.5347ZM17.5701 13.2151C17.8719 13.191 18.1377 13.4049 18.1634 13.6933C18.1885 13.9803 17.9637 14.234 17.6614 14.2579C17.3584 14.2822 17.0922 14.0682 17.068 13.7802C17.068 14.2267 17.4305 14.5896 17.878 14.5896C17.8846 14.5896 17.8913 14.5891 17.8981 14.5891C17.9382 14.7872 17.9519 14.9976 17.8873 15.1517C18.3242 14.7717 18.6876 14.2964 18.6876 13.7801C18.6876 13.3325 18.3242 12.9697 17.878 12.9697C17.5054 12.9697 17.1934 13.2206 17.0979 13.5615C17.1687 13.3741 17.3479 13.233 17.5701 13.215L17.5701 13.2151ZM26.1717 12.6258C25.6439 12.0971 26.4239 11.1089 26.7105 11.1089C26.3971 11.1089 25.038 11.9987 25.4994 12.6258C25.754 12.6258 26.1717 12.6258 26.1717 12.6258ZM19.3713 21.4114C19.79 21.5399 20.211 21.3832 20.309 21.0615C20.4071 20.7392 20.1458 20.3751 19.7264 20.2462C19.6685 20.2289 19.6101 20.2165 19.5525 20.2094C20.1582 20.5548 20.1511 21.2476 19.3713 21.4114ZM18.1568 16.9627C18.1568 16.9627 18.7568 17.1525 19.4949 17.4898C19.3467 17.3979 19.2077 17.2943 19.0827 17.1767C18.708 16.8225 18.4099 16.6296 18.1568 16.5315V16.9627ZM18.3844 24.6801C19.6388 24.6801 23.9761 21.9109 23.9761 21.9109C22.9049 21.9109 22.4722 21.7452 22.4722 21.7452C22.2303 21.8712 21.734 22.1202 20.6761 22.7434C19.8152 23.2501 19.2383 23.8908 18.4533 24.1704C18.3338 24.2137 18.2388 24.2238 18.1568 24.2193C17.9761 24.2037 17.7774 24.1792 17.5942 24.1683V20.1856C17.5942 19.768 17.2893 19.6 17.0881 19.6V24.2348C16.7488 24.4147 16.5819 24.6381 16.4901 24.847C16.4901 24.847 15.8434 24.7608 15.8619 25.9578C15.8619 25.6403 16.3329 25.0852 16.6596 25.0852C16.6596 24.6801 17.8484 24.6801 18.3844 24.6801ZM29.2034 31.0917C28.8857 31.0917 27.4278 31.1534 27.2968 29.8835C26.9746 29.8144 26.5984 29.8004 26.2034 29.8566C27.2341 31.8236 28.3529 31.8394 28.6457 31.8544C29.1013 32.3626 28.9486 34.0789 28.2904 34.0443C25.881 33.916 25.9693 35.3819 26.2393 35.6817C26.2393 34.5764 26.9906 34.3143 28.8887 34.3143C28.8888 34.3143 30.4402 32.3287 29.2034 31.0917ZM29.6989 35.838H29.3727C29.3451 36.3646 29.8664 36.5196 29.8664 36.5196C29.6989 36.3522 29.5768 35.9612 29.6989 35.838ZM26.6499 36.5794C26.5113 36.4405 26.3971 35.8841 26.5984 35.6817H26.2392C26.2092 36.2515 26.6499 36.5794 26.6499 36.5794ZM33.8423 18.2788C33.8423 16.5961 31.5345 16.8605 31.4206 18.1526C31.5224 17.2055 33.0643 17.0658 33.0643 18.2521C33.0643 19.4779 30.1887 20.281 30.1887 22.3529C30.1887 24.6359 32.4715 24.8471 32.2406 26.9344C32.2015 27.2957 31.8144 27.7678 31.2539 27.7678C30.0522 27.7678 29.409 27.2578 29.0354 26.537C29.4174 27.5574 30.0897 28.3396 31.4889 28.3396C32.9386 28.3396 33.0702 27.268 33.0702 27.0191C33.0702 24.9293 30.8877 24.4325 30.8877 22.4465C30.8879 20.5127 33.8423 19.7161 33.8423 18.2788ZM16.8253 26.3972C16.8253 27.0415 17.0881 27.2914 17.0881 27.2914C17.0881 26.903 17.2478 26.5746 17.3391 26.484C17.2041 26.3482 16.8253 26.3972 16.8253 26.3972ZM33.5003 22.8358C32.9145 22.8358 32.4349 23.284 32.3844 23.8558C32.411 23.7186 32.5025 23.5852 32.6811 23.4517C33.3522 22.9529 34.6676 23.9576 33.9173 24.996C34.3297 24.8304 34.6194 24.428 34.6194 23.9564C34.6196 23.338 34.1186 22.8358 33.5003 22.8358ZM28.3666 35.838H27.9753C27.9353 36.5822 28.4115 36.6942 28.4115 36.6942C28.2094 36.4927 28.1757 36.0286 28.3666 35.838ZM17.3129 31.8689C17.2524 31.8689 17.196 31.8813 17.1422 31.9018C16.9562 32.0433 16.8428 32.2633 16.8495 32.5045C16.9115 32.7029 17.0943 32.8463 17.3129 32.8463C17.5829 32.8463 17.8015 32.6276 17.8015 32.3578C17.8015 32.0876 17.5829 31.8689 17.3129 31.8689ZM20.0616 35.4828H19.496C19.4912 36.3892 20.0775 36.5536 20.0775 36.5536C19.9122 36.3872 19.7023 35.8418 20.0616 35.4828H20.0616ZM21.8155 29.7503C21.8155 27.677 26.7812 27.4336 26.7812 25.7255C26.7812 25.0298 26.1807 24.7157 25.7538 24.7157C25.8746 24.8367 26.5205 26.2256 24.6658 26.2256C22.9887 26.7869 19.3365 29.9616 21.8716 31.0621C21.8704 31.3812 21.8274 33.757 20.3049 33.5703C18.1115 33.2989 17.5643 34.2056 17.9853 35.226C17.9853 33.6778 19.0725 33.9654 20.4924 33.9654C21.3803 33.9654 22.6784 32.8425 22.6784 30.952C22.6784 30.952 21.8155 30.6209 21.8155 29.7503ZM17.5943 31.021V26.8577C17.3129 26.8577 17.0882 27.2916 17.0882 27.2916V30.8436V30.8209L16.7806 30.8218L16.7833 31.2703C17.0199 31.2702 17.5943 31.1481 17.5943 31.0209L17.5943 31.021ZM18.449 36.3858C18.449 36.3858 18.0101 35.6961 18.4804 35.226H17.9854C17.7867 36.0874 18.449 36.3858 18.449 36.3858ZM21.5102 35.4917C21.5102 35.4917 21.2738 35.4917 21.0997 35.4917C21.0965 36.1315 21.8398 36.3738 21.8398 36.3738C21.5779 36.1131 21.3985 35.6018 21.5102 35.4917Z" fill="#8C99C6"/>
<path d="M7.70187 28.5797L7.67451 28.4957L7.6628 28.4082C7.62271 28.1088 7.55031 27.5511 7.11974 27.4513C7.00462 27.4246 6.88567 27.4383 6.75874 27.4905C6.79327 27.358 6.78923 27.2381 6.74763 27.1281C6.58889 26.7153 6.02695 26.7206 5.72502 26.7245H5.63626L5.54882 26.7084C5.25224 26.6537 4.69899 26.5504 4.47199 26.9293C4.411 27.0305 4.38676 27.1476 4.39716 27.284C4.28225 27.2099 4.16643 27.1767 4.0496 27.1823C3.60772 27.2059 3.43878 27.7421 3.3484 28.0307L3.32084 28.1145L3.27984 28.1923C3.13504 28.4582 2.86654 28.9511 3.15655 29.2849C3.234 29.3741 3.33821 29.4338 3.4713 29.4653C3.36608 29.5525 3.29812 29.6522 3.26843 29.7662C3.15301 30.1925 3.61125 30.5185 3.85663 30.6932L3.92863 30.7464L3.99062 30.8091C4.19854 31.0291 4.58488 31.4362 4.99172 31.2639C5.09936 31.2175 5.18863 31.1372 5.26012 31.0206C5.31101 31.1478 5.38422 31.2422 5.48288 31.3072C5.85347 31.5472 6.30474 31.2128 6.54749 31.0342L6.61928 30.9816L6.69896 30.9426C6.9716 30.812 7.47952 30.571 7.44114 30.1306C7.43095 30.0124 7.38157 29.904 7.29321 29.8001C7.42923 29.792 7.54172 29.7508 7.633 29.6768C7.97714 29.3988 7.798 28.8661 7.70187 28.5797" fill="white"/>
<path d="M5.76636 28.9368C8.2385 30.3979 7.47713 28.7912 7.4228 28.5536C7.36807 28.3168 7.34727 26.5395 5.76636 28.9368Z" fill="#F14B51"/>
<path d="M5.61111 29.3025C4.98546 32.104 6.27828 30.8844 6.4868 30.7602C6.69521 30.6349 8.37912 30.0654 5.61111 29.3025Z" fill="#F14B51"/>
<path d="M5.21403 29.2686C2.35514 29.5384 3.91555 30.3915 4.09883 30.5509C4.28261 30.7097 5.34358 32.136 5.21403 29.2686Z" fill="#F14B51"/>
<path d="M5.12392 28.8794C3.98287 26.2444 3.65379 27.9917 3.55877 28.2162C3.46375 28.4388 2.43508 29.8895 5.12392 28.8794Z" fill="#F14B51"/>
<path d="M45.959 28.1925L45.9182 28.1147L45.8902 28.0309C45.7999 27.7422 45.6309 27.2061 45.1903 27.1825C45.0721 27.1769 44.9569 27.2098 44.842 27.2832C44.8525 27.1477 44.8268 27.0306 44.7675 26.9294C44.5394 26.5503 43.987 26.6537 43.6904 26.7084L43.6021 26.7245H43.5137C43.2129 26.7206 42.6505 26.7154 42.4923 27.1282C42.4493 27.2381 42.4462 27.3582 42.4799 27.4905C42.3549 27.4384 42.2357 27.4249 42.1198 27.4515C41.6897 27.551 41.6157 28.1088 41.5777 28.4082L41.5644 28.4958L41.5378 28.5798C41.4412 28.8662 41.2626 29.3988 41.6067 29.6771C41.6979 29.751 41.8096 29.7923 41.9464 29.8004C41.8581 29.9043 41.8088 30.0129 41.7985 30.1309C41.7604 30.5713 42.2676 30.8123 42.5407 30.9429L42.6196 30.982L42.6914 31.0346C42.9349 31.2133 43.3866 31.5475 43.756 31.3075C43.8559 31.2425 43.9285 31.1482 43.9788 31.0209C44.0508 31.1376 44.1392 31.2178 44.2478 31.2643C44.6545 31.4366 45.0412 31.0294 45.2489 30.8094L45.3114 30.7468L45.3824 30.6936C45.6286 30.519 46.0865 30.1928 45.9715 29.7666C45.9407 29.6523 45.8741 29.5528 45.7682 29.4657C45.9007 29.4341 46.0053 29.3744 46.0823 29.2852C46.3728 28.9513 46.1047 28.4585 45.959 28.1925" fill="white"/>
<path d="M43.7734 28.6751C41.6206 26.7758 43.3833 27.0025 43.6257 26.9812C43.8669 26.9609 45.5647 26.4308 43.7734 28.6751Z" fill="#F14B51"/>
<path d="M43.4737 28.9368C41.0016 30.3979 41.7614 28.7912 41.8169 28.5536C41.8711 28.3168 41.8916 26.5395 43.4737 28.9368Z" fill="#F14B51"/>
<path d="M43.6287 29.3025C44.2547 32.104 42.9617 30.8844 42.7528 30.7602C42.5446 30.6349 40.8613 30.0654 43.6287 29.3025Z" fill="#F14B51"/>
<path d="M44.0246 29.2686C46.8836 29.5384 45.3243 30.3915 45.1403 30.5509C44.9576 30.7097 43.8951 32.136 44.0246 29.2686Z" fill="#F14B51"/>
<path d="M44.114 28.8794C45.2558 26.2444 45.5841 27.9917 45.6796 28.2162C45.7741 28.4388 46.8027 29.8895 44.114 28.8794Z" fill="#F14B51"/>
<path d="M44.6694 28.9618C44.6667 28.9388 44.6593 28.9183 44.6562 28.8961C44.8857 28.7275 45.1337 28.5468 45.1337 28.5468L45.1099 28.4934C45.1099 28.4934 44.8206 28.5439 44.5431 28.5923C44.4038 28.3641 44.1664 28.2093 43.8946 28.1828C43.8083 27.9233 43.722 27.6589 43.722 27.6589L43.6639 27.6639C43.6639 27.6639 43.6248 27.9394 43.5854 28.2092C43.4184 28.2543 43.2684 28.3488 43.1544 28.4841C43.0936 28.557 43.0497 28.6395 43.0148 28.7257C42.7353 28.7257 42.4399 28.7266 42.4399 28.7266L42.4275 28.7841C42.4275 28.7841 42.7029 28.9183 42.9572 29.0429C42.9581 29.0661 42.9552 29.089 42.9572 29.1124C42.9767 29.3365 43.0816 29.5376 43.2509 29.6844C43.1615 29.9637 43.0609 30.2758 43.0609 30.2758L43.1102 30.3056C43.1102 30.3056 43.3421 30.0654 43.5486 29.8533C43.6565 29.8887 43.7713 29.9027 43.8873 29.8924C44.0043 29.8835 44.1151 29.8485 44.2157 29.7963C44.4551 29.9686 44.7251 30.1639 44.7251 30.1639L44.7694 30.1258C44.7694 30.1258 44.6163 29.8365 44.4799 29.5775C44.6213 29.4028 44.688 29.1852 44.6694 28.9617" fill="white"/>
<path d="M43.7695 28.5316C43.634 28.5421 43.5119 28.6062 43.4247 28.7109C43.3376 28.8147 43.2954 28.9458 43.3078 29.0806C43.3314 29.3597 43.5786 29.5673 43.8569 29.5426C43.9934 29.5302 44.1145 29.4665 44.2029 29.3631C44.2892 29.2584 44.3312 29.128 44.3198 28.9923C44.2955 28.7131 44.048 28.5064 43.7695 28.5316Z" fill="#F14B51"/>
<path d="M5.4662 28.6751C7.61975 26.7758 5.85597 27.0025 5.61433 26.9812C5.37188 26.9609 3.67444 26.4308 5.4662 28.6751Z" fill="#F14B51"/>
<path d="M6.28181 29.0428C6.538 28.9184 6.81205 28.784 6.81205 28.784L6.79922 28.7265C6.79922 28.7265 6.50447 28.7256 6.22425 28.7256C6.19032 28.6395 6.14619 28.5569 6.0851 28.4841C5.9712 28.3488 5.82135 28.2544 5.65392 28.2091C5.61556 27.9391 5.57648 27.6639 5.57648 27.6639L5.5173 27.6589C5.5173 27.6589 5.43157 27.9231 5.34655 28.1828C5.073 28.2093 4.8353 28.3641 4.69625 28.5923C4.41987 28.5439 4.12886 28.4934 4.12886 28.4934L4.10645 28.5468C4.10645 28.5468 4.35384 28.7275 4.58327 28.8961C4.57953 28.9184 4.57286 28.9389 4.57043 28.9617C4.55146 29.1864 4.61961 29.4028 4.76088 29.5775C4.62335 29.8363 4.47026 30.1258 4.47026 30.1258L4.5156 30.1639C4.5156 30.1639 4.78511 29.9686 5.02433 29.7962C5.1249 29.8487 5.23568 29.8825 5.35231 29.8924C5.46924 29.9029 5.58375 29.8887 5.69159 29.8533C5.89749 30.0654 6.12913 30.3056 6.12913 30.3056L6.17992 30.2758C6.17992 30.2758 6.07915 29.9635 5.98928 29.6852C6.15821 29.5374 6.26303 29.3363 6.28292 29.1122C6.28535 29.089 6.28178 29.0662 6.28178 29.0429" fill="white"/>
<path d="M5.81578 28.7109C5.72834 28.6061 5.60686 28.5419 5.47074 28.5316C5.19255 28.5064 4.94505 28.7131 4.92082 28.9924C4.90931 29.1281 4.95121 29.2585 5.03755 29.3632C5.12479 29.4666 5.24748 29.5303 5.38289 29.5427C5.66108 29.5674 5.90848 29.3597 5.93262 29.0807C5.94403 28.9458 5.90242 28.8147 5.81578 28.7109Z" fill="#F14B51"/>
<path d="M5.78131 16.728C4.57775 16.5155 3.42529 17.3234 3.21263 18.527C3.00027 19.7313 3.80729 20.8837 5.01095 21.0962C6.21562 21.3087 7.36858 20.5012 7.58054 19.297C7.7936 18.0933 6.98608 16.9409 5.78131 16.728Z" fill="white"/>
<path d="M6.28296 18.4055C6.26348 18.3936 6.22954 18.3716 6.18844 18.3444C6.00658 18.2239 5.65002 17.9881 5.64023 17.981C5.59085 17.9471 5.54279 17.9148 5.49543 17.8829C5.33689 17.7766 5.19512 17.6842 5.06183 17.6073C5.01043 17.5781 4.96075 17.5508 4.91076 17.5264C4.69881 17.4195 4.49564 17.3548 4.25582 17.3337C4.07093 17.4672 3.91048 17.6325 3.78052 17.8236C4.33196 18.0227 4.87037 18.3416 5.99143 19.0379C6.05555 18.8897 6.27013 18.4333 6.28296 18.4055Z" fill="#F14B51"/>
<path d="M5.76554 19.5943C5.78795 19.5385 5.88651 19.2891 5.9268 19.193C4.77798 18.4794 4.24451 18.1637 3.69186 17.9683C3.60613 18.1222 3.54191 18.2901 3.5 18.4688C3.81546 18.9019 4.66084 19.3274 5.76554 19.5943Z" fill="#F14B51"/>
<path d="M5.64152 17.7807C6.07169 17.5262 6.56042 17.5955 6.93768 17.7242C6.79701 17.5426 6.62666 17.3838 6.42855 17.2602C6.07219 17.1894 5.58003 17.1782 5.18823 17.4897C5.33071 17.5734 5.47784 17.671 5.64152 17.7807Z" fill="#F14B51"/>
<path d="M3.92529 19.836C3.98285 19.8755 4.04182 19.913 4.10453 19.9483C4.23116 20.0182 4.36828 20.0787 4.50996 20.1305C4.57004 20.1533 4.63113 20.1743 4.69273 20.1942C4.90821 20.2651 5.4027 20.3936 5.43956 20.4022C5.44715 20.3832 5.63243 19.9249 5.70271 19.7508C4.84621 19.5384 3.90833 19.1666 3.46271 18.6831C3.43596 18.9064 3.44635 19.1272 3.49351 19.3366C3.58752 19.5414 3.73849 19.7046 3.92529 19.836Z" fill="#F14B51"/>
<path d="M5.46822 20.5812L5.28949 20.5352C5.12378 20.4931 4.94414 20.4459 4.76147 20.3899C4.85054 20.5797 4.99069 20.7277 5.14014 20.8422C5.34038 20.8687 5.53799 20.8637 5.72793 20.8309C5.5907 20.7241 5.46822 20.5812 5.46822 20.5812" fill="#F14B51"/>
<path d="M7.25924 18.3467C7.21855 18.2137 7.16513 18.0848 7.09798 17.9648C6.76031 17.8142 6.24603 17.6671 5.79688 17.8868L6.41638 18.2959C6.54553 18.2844 6.66438 18.2808 6.77313 18.2834C6.83251 18.2844 6.88764 18.2876 6.94035 18.2927C7.06162 18.3034 7.16513 18.3229 7.25924 18.3466" fill="#F14B51"/>
<path d="M6.94288 18.46C6.9248 19.478 6.44486 20.2632 6.03125 20.7545C6.67862 20.5295 7.18917 19.9716 7.3165 19.2509C7.36012 19.0046 7.35245 18.7624 7.30681 18.5319C7.20623 18.5006 7.08597 18.4744 6.94288 18.46" fill="#F14B51"/>
<path d="M5.03373 17.4035C5.32364 17.148 5.66606 17.0616 5.98181 17.0545C5.90164 17.0289 5.81995 17.0068 5.73482 16.9923C5.28456 16.9129 4.84409 16.9966 4.46997 17.1993C4.6692 17.2382 4.84924 17.3081 5.03373 17.4035Z" fill="#F14B51"/>
<path d="M6.44079 18.4609C6.29346 18.7678 6.20682 18.9557 6.13492 19.1266C6.11281 19.1784 6.0913 19.2287 6.06959 19.281C6.03526 19.3668 5.92943 19.6332 5.92943 19.6332L5.86632 19.7897L5.59277 20.4673C5.6682 20.5674 5.75959 20.649 5.84946 20.7127C6.2559 20.2491 6.7617 19.47 6.77715 18.4501C6.67485 18.4464 6.56236 18.4502 6.44079 18.4609" fill="#F14B51"/>
<path d="M4.55656 20.3226C4.42014 20.2757 4.28392 20.2221 4.15527 20.1594C4.20334 20.3079 4.27261 20.4396 4.34238 20.5527C4.4883 20.6463 4.64845 20.7202 4.8194 20.7729C4.70863 20.6481 4.61301 20.5004 4.55656 20.3226Z" fill="#F14B51"/>
<path d="M3.95449 20.0496C3.862 19.9942 3.77596 19.9325 3.69629 19.8647C3.78646 20.026 3.90006 20.1738 4.03184 20.3035C4.00054 20.2226 3.97307 20.1389 3.95449 20.0496Z" fill="#F14B51"/>
<path d="M41.4187 19.297C41.6314 20.5012 42.7835 21.3087 43.9874 21.0962C45.1917 20.8838 45.9985 19.7313 45.7871 18.527C45.5745 17.3234 44.4218 16.5155 43.2175 16.728C42.0133 16.9408 41.2064 18.0932 41.4187 19.297Z" fill="white"/>
<path d="M42.7158 18.4055C42.7349 18.3936 42.769 18.3716 42.811 18.3444C42.9931 18.2239 43.3491 17.9881 43.3581 17.981C43.4086 17.9471 43.4568 17.9148 43.5041 17.8829C43.6609 17.7766 43.8039 17.6842 43.9374 17.6073C43.9886 17.5781 44.0389 17.5508 44.088 17.5264C44.2995 17.4195 44.5037 17.3548 44.7432 17.3337C44.9279 17.4672 45.0891 17.6325 45.2173 17.8236C44.6662 18.0227 44.1294 18.3416 43.0069 19.0379C42.9426 18.8897 42.729 18.4333 42.7158 18.4055Z" fill="#F14B51"/>
<path d="M43.2334 19.5943C43.2107 19.5385 43.1113 19.2891 43.0732 19.193C44.2198 18.4794 44.7549 18.1637 45.3072 17.9683C45.3924 18.1222 45.457 18.2901 45.499 18.4688C45.1831 18.9019 44.3378 19.3274 43.2334 19.5943Z" fill="#F14B51"/>
<path d="M43.3573 17.7807C42.9267 17.5262 42.4384 17.5955 42.0605 17.7242C42.2014 17.5426 42.3728 17.3838 42.5708 17.2602C42.9267 17.1894 43.4186 17.1782 43.8099 17.4897C43.6685 17.5734 43.5204 17.671 43.3573 17.7807Z" fill="#F14B51"/>
<path d="M45.0731 19.836C45.0168 19.8755 44.9581 19.913 44.8942 19.9483C44.7682 20.0182 44.6313 20.0787 44.4899 20.1305C44.4293 20.1533 44.3678 20.1743 44.3063 20.1942C44.092 20.2651 43.597 20.3936 43.5598 20.4022C43.5516 20.3832 43.3657 19.9249 43.2969 19.7508C44.1531 19.5384 45.0902 19.1666 45.5372 18.6831C45.5638 18.9064 45.5523 19.1272 45.506 19.3366C45.4117 19.5414 45.261 19.7046 45.0731 19.836Z" fill="#F14B51"/>
<path d="M43.5314 20.5812L43.7089 20.5352C43.8751 20.4931 44.0558 20.4459 44.2386 20.3899C44.1482 20.5797 44.0087 20.7277 43.8595 20.8422C43.6596 20.8687 43.4614 20.8637 43.2725 20.8309C43.4081 20.7241 43.5314 20.5812 43.5314 20.5812" fill="#F14B51"/>
<path d="M41.7393 18.3467C41.7803 18.2137 41.8328 18.0848 41.9015 17.9648C42.2382 17.8142 42.7514 17.6671 43.2008 17.8868L42.5819 18.2959C42.4526 18.2844 42.3338 18.2808 42.2248 18.2834C42.1662 18.2844 42.1108 18.2876 42.0573 18.2927C41.9363 18.3034 41.8339 18.3229 41.7393 18.3466" fill="#F14B51"/>
<path d="M42.0569 18.46C42.0745 19.478 42.5557 20.2632 42.9697 20.7545C42.3206 20.5295 41.8094 19.9716 41.6834 19.2509C41.6402 19.0046 41.6464 18.7624 41.6935 18.5319C41.7933 18.5006 41.9144 18.4744 42.0569 18.46" fill="#F14B51"/>
<path d="M43.9663 17.4035C43.6762 17.148 43.3331 17.0616 43.0178 17.0545C43.0977 17.0289 43.179 17.0068 43.2649 16.9923C43.7148 16.9129 44.1551 16.9966 44.5292 17.1993C44.3307 17.2382 44.1503 17.3081 43.9663 17.4035Z" fill="#F14B51"/>
<path d="M42.5595 18.4609C42.7072 18.7678 42.7922 18.9557 42.8666 19.1266C42.8879 19.1784 42.9084 19.2287 42.9301 19.281C42.965 19.3668 43.0707 19.6332 43.0707 19.6332L43.1334 19.7897L43.4076 20.4673C43.3317 20.5674 43.241 20.649 43.1508 20.7127C42.7446 20.2491 42.2379 19.47 42.2236 18.4501C42.3254 18.4464 42.4384 18.4502 42.5595 18.4609" fill="#F14B51"/>
<path d="M44.4433 20.3226C44.5798 20.2757 44.715 20.2221 44.8449 20.1594C44.7954 20.3079 44.7276 20.4396 44.6568 20.5527C44.5111 20.6463 44.3509 20.7202 44.1807 20.7729C44.2912 20.6481 44.3868 20.5004 44.4433 20.3226Z" fill="#F14B51"/>
<path d="M45.0454 20.0496C45.1367 19.9942 45.2229 19.9325 45.303 19.8647C45.2126 20.026 45.0998 20.1738 44.9675 20.3035C44.9982 20.2226 45.0259 20.1389 45.0454 20.0496Z" fill="#F14B51"/>
</g>
<defs>
<clipPath id="clip0_1656_4212">
<rect width="48" height="48" fill="white" transform="translate(0.5)"/>
</clipPath>
</defs>
</svg>
