<svg width="142" height="23" viewBox="0 0 142 23" fill="none" xmlns="http://www.w3.org/2000/svg">
<path fill-rule="evenodd" clip-rule="evenodd" d="M10.2991 18.4416V14.6862H12.6821C13.0761 14.6862 13.3955 14.3283 13.3955 13.8861C13.3955 13.4445 13.0761 13.0865 12.6821 13.0865H10.2924L10.2838 11.7652H15.0177C15.4118 11.7652 15.7311 11.4072 15.7311 10.9657C15.7311 10.5234 15.4118 10.1655 15.0177 10.1655H10.2738L10.2658 8.88694H12.6821C13.0761 8.88694 13.3955 8.52834 13.3955 8.08677C13.3955 7.64453 13.0761 7.28659 12.6821 7.28659H10.2558L10.2331 3.64631L20.1931 10.9978L10.2991 18.4416ZM9.72927 0.232107C9.36388 -0.0395261 8.87982 -0.0756546 8.47844 0.139109C8.07705 0.349859 7.82502 0.775372 7.82502 1.2417L7.82635 7.28653H3.43845C3.0444 7.28653 2.72502 7.64447 2.72502 8.08671C2.72502 8.52828 3.0444 8.88688 3.43845 8.88688H7.82635L7.82702 10.1654H0.713426C0.319375 10.1654 0 10.5234 0 10.9656C0 11.4072 0.319375 11.7651 0.713426 11.7651H7.82702V13.0865H3.43845C3.0444 13.0865 2.72502 13.4444 2.72502 13.886C2.72502 14.3282 3.0444 14.6862 3.43845 14.6862H7.82768L7.82902 20.7618C7.82902 21.2281 8.08105 21.6496 8.48244 21.8644C8.65513 21.958 8.84448 22.0029 9.03317 22.0029C9.28121 22.0029 9.52524 21.9259 9.73326 21.7714L22.9637 12.024C23.2784 11.7926 23.4677 11.4152 23.4677 11.0178C23.4597 10.6083 23.2744 10.2317 22.9597 10.0002L9.72927 0.232107Z" fill="white"/>
<path d="M29.0544 6.9449C29.6839 6.9449 30.2333 7.07292 30.7027 7.32895C31.1827 7.58499 31.5508 7.92103 31.8068 8.33708V7.07292H34.5432V15.9861C34.5432 16.8075 34.3778 17.5489 34.0471 18.2104C33.7271 18.8825 33.231 19.4159 32.5589 19.8106C31.8975 20.2053 31.0707 20.4027 30.0786 20.4027C28.7557 20.4027 27.6836 20.0879 26.8622 19.4585C26.0407 18.8398 25.5713 17.997 25.454 16.9302H28.1583C28.2437 17.2716 28.4464 17.5383 28.7664 17.7303C29.0864 17.933 29.4812 18.0343 29.9506 18.0343C30.516 18.0343 30.964 17.869 31.2947 17.5383C31.6361 17.2182 31.8068 16.7008 31.8068 15.9861V14.7219C31.5401 15.138 31.1721 15.4793 30.7027 15.746C30.2333 16.0021 29.6839 16.1301 29.0544 16.1301C28.3183 16.1301 27.6516 15.9434 27.0542 15.57C26.4568 15.186 25.982 14.6472 25.63 13.9538C25.2886 13.2497 25.1179 12.439 25.1179 11.5215C25.1179 10.604 25.2886 9.79861 25.63 9.10518C25.982 8.41176 26.4568 7.87836 27.0542 7.50498C27.6516 7.13159 28.3183 6.9449 29.0544 6.9449ZM31.8068 11.5375C31.8068 10.8547 31.6148 10.316 31.2307 9.92129C30.8573 9.52657 30.3986 9.32921 29.8545 9.32921C29.3105 9.32921 28.8464 9.52657 28.4624 9.92129C28.089 10.3053 27.9023 10.8387 27.9023 11.5215C27.9023 12.2043 28.089 12.7483 28.4624 13.1537C28.8464 13.5484 29.3105 13.7458 29.8545 13.7458C30.3986 13.7458 30.8573 13.5484 31.2307 13.1537C31.6148 12.759 31.8068 12.2203 31.8068 11.5375Z" fill="white"/>
<path d="M40.5873 16.1301C39.7125 16.1301 38.9231 15.9434 38.219 15.57C37.5256 15.1966 36.9762 14.6632 36.5708 13.9698C36.1761 13.2764 35.9787 12.4656 35.9787 11.5375C35.9787 10.62 36.1814 9.81461 36.5868 9.12119C36.9922 8.41709 37.5469 7.87836 38.251 7.50498C38.9551 7.13159 39.7445 6.9449 40.6193 6.9449C41.4941 6.9449 42.2835 7.13159 42.9876 7.50498C43.6917 7.87836 44.2465 8.41709 44.6518 9.12119C45.0572 9.81461 45.2599 10.62 45.2599 11.5375C45.2599 12.455 45.0519 13.2657 44.6358 13.9698C44.2305 14.6632 43.6704 15.1966 42.9556 15.57C42.2515 15.9434 41.4621 16.1301 40.5873 16.1301ZM40.5873 13.7778C41.1101 13.7778 41.5528 13.5858 41.9155 13.2017C42.2889 12.807 42.4756 12.2523 42.4756 11.5375C42.4756 10.8227 42.2942 10.2733 41.9315 9.88929C41.5794 9.49457 41.1421 9.29721 40.6193 9.29721C40.0859 9.29721 39.6432 9.48923 39.2911 9.87328C38.9391 10.2573 38.7631 10.8121 38.7631 11.5375C38.7631 12.2523 38.9338 12.807 39.2752 13.2017C39.6272 13.5858 40.0646 13.7778 40.5873 13.7778Z" fill="white"/>
<path d="M46.1675 11.5215C46.1675 10.604 46.3382 9.79861 46.6796 9.10518C47.0317 8.41176 47.5064 7.87836 48.1038 7.50498C48.7012 7.13159 49.368 6.9449 50.1041 6.9449C50.7335 6.9449 51.2829 7.07292 51.7523 7.32895C52.2323 7.58499 52.6004 7.92103 52.8564 8.33708V7.07292H55.5928V16.0021H52.8564V14.7379C52.5897 15.154 52.2163 15.49 51.7363 15.746C51.2669 16.0021 50.7175 16.1301 50.0881 16.1301C49.3626 16.1301 48.7012 15.9434 48.1038 15.57C47.5064 15.186 47.0317 14.6472 46.6796 13.9538C46.3382 13.2497 46.1675 12.439 46.1675 11.5215ZM52.8564 11.5375C52.8564 10.8547 52.6644 10.316 52.2803 9.92129C51.907 9.52657 51.4482 9.32921 50.9042 9.32921C50.3601 9.32921 49.896 9.52657 49.512 9.92129C49.1386 10.3053 48.9519 10.8387 48.9519 11.5215C48.9519 12.2043 49.1386 12.7483 49.512 13.1537C49.896 13.5484 50.3601 13.7458 50.9042 13.7458C51.4482 13.7458 51.907 13.5484 52.2803 13.1537C52.6644 12.759 52.8564 12.2203 52.8564 11.5375Z" fill="white"/>
<path d="M60.3088 4.16054V16.0021H57.5724V4.16054H60.3088Z" fill="white"/>
<path d="M67.7325 6.97691C68.7779 6.97691 69.61 7.31828 70.2288 8.00104C70.8582 8.67313 71.1729 9.60125 71.1729 10.7854V16.0021H68.4526V11.1535C68.4526 10.556 68.2979 10.092 67.9885 9.76127C67.6791 9.43056 67.2631 9.2652 66.7403 9.2652C66.2176 9.2652 65.8016 9.43056 65.4922 9.76127C65.1828 10.092 65.0281 10.556 65.0281 11.1535V16.0021H62.2918V7.07292H65.0281V8.25707C65.3055 7.86236 65.6789 7.55298 66.1483 7.32895C66.6177 7.09426 67.1457 6.97691 67.7325 6.97691Z" fill="white"/>
<path d="M77.1389 16.1301C76.2642 16.1301 75.4747 15.9434 74.7706 15.57C74.0772 15.1966 73.5278 14.6632 73.1224 13.9698C72.7277 13.2764 72.5303 12.4656 72.5303 11.5375C72.5303 10.62 72.733 9.81461 73.1384 9.12119C73.5438 8.41709 74.0985 7.87836 74.8026 7.50498C75.5067 7.13159 76.2962 6.9449 77.1709 6.9449C78.0457 6.9449 78.8352 7.13159 79.5393 7.50498C80.2433 7.87836 80.7981 8.41709 81.2035 9.12119C81.6089 9.81461 81.8116 10.62 81.8116 11.5375C81.8116 12.455 81.6035 13.2657 81.1875 13.9698C80.7821 14.6632 80.222 15.1966 79.5073 15.57C78.8032 15.9434 78.0137 16.1301 77.1389 16.1301ZM77.1389 13.7778C77.6617 13.7778 78.1044 13.5858 78.4671 13.2017C78.8405 12.807 79.0272 12.2523 79.0272 11.5375C79.0272 10.8227 78.8458 10.2733 78.4831 9.88929C78.1311 9.49457 77.6937 9.29721 77.1709 9.29721C76.6375 9.29721 76.1948 9.48923 75.8428 9.87328C75.4907 10.2573 75.3147 10.8121 75.3147 11.5375C75.3147 12.2523 75.4854 12.807 75.8268 13.2017C76.1788 13.5858 76.6162 13.7778 77.1389 13.7778Z" fill="white"/>
<path d="M96.0809 7.07292L93.6646 16.0021H90.6402L89.232 10.2093L87.7758 16.0021H84.7674L82.3351 7.07292H85.0715L86.3356 13.4577L87.8398 7.07292H90.7362L92.2564 13.4257L93.5046 7.07292H96.0809Z" fill="white"/>
<path d="M102.565 6.97691C103.611 6.97691 104.443 7.31828 105.061 8.00104C105.691 8.67313 106.006 9.60125 106.006 10.7854V16.0021H103.285V11.1535C103.285 10.556 103.131 10.092 102.821 9.76127C102.512 9.43056 102.096 9.2652 101.573 9.2652C101.05 9.2652 100.634 9.43056 100.325 9.76127C100.015 10.092 99.8608 10.556 99.8608 11.1535V16.0021H97.1244V7.07292H99.8608V8.25707C100.138 7.86236 100.512 7.55298 100.981 7.32895C101.45 7.09426 101.978 6.97691 102.565 6.97691Z" fill="white"/>
<path d="M111.972 16.1301C111.097 16.1301 110.307 15.9434 109.603 15.57C108.91 15.1966 108.36 14.6632 107.955 13.9698C107.56 13.2764 107.363 12.4656 107.363 11.5375C107.363 10.62 107.566 9.81461 107.971 9.12119C108.376 8.41709 108.931 7.87836 109.635 7.50498C110.339 7.13159 111.129 6.9449 112.004 6.9449C112.878 6.9449 113.668 7.13159 114.372 7.50498C115.076 7.87836 115.631 8.41709 116.036 9.12119C116.442 9.81461 116.644 10.62 116.644 11.5375C116.644 12.455 116.436 13.2657 116.02 13.9698C115.615 14.6632 115.055 15.1966 114.34 15.57C113.636 15.9434 112.846 16.1301 111.972 16.1301ZM111.972 13.7778C112.494 13.7778 112.937 13.5858 113.3 13.2017C113.673 12.807 113.86 12.2523 113.86 11.5375C113.86 10.8227 113.678 10.2733 113.316 9.88929C112.964 9.49457 112.526 9.29721 112.004 9.29721C111.47 9.29721 111.027 9.48923 110.675 9.87328C110.323 10.2573 110.147 10.8121 110.147 11.5375C110.147 12.2523 110.318 12.807 110.659 13.2017C111.011 13.5858 111.449 13.7778 111.972 13.7778Z" fill="white"/>
<path d="M130.914 7.07292L128.497 16.0021H125.473L124.065 10.2093L122.608 16.0021H119.6L117.168 7.07292H119.904L121.168 13.4577L122.672 7.07292H125.569L127.089 13.4257L128.337 7.07292H130.914Z" fill="white"/>
<path d="M135.558 4.36857L135.238 12.0336H132.917L132.597 4.36857H135.558ZM134.117 16.1301C133.637 16.1301 133.243 15.9914 132.933 15.714C132.634 15.426 132.485 15.074 132.485 14.6579C132.485 14.2312 132.634 13.8738 132.933 13.5858C133.243 13.2977 133.637 13.1537 134.117 13.1537C134.587 13.1537 134.971 13.2977 135.27 13.5858C135.579 13.8738 135.734 14.2312 135.734 14.6579C135.734 15.074 135.579 15.426 135.27 15.714C134.971 15.9914 134.587 16.1301 134.117 16.1301Z" fill="white"/>
<path d="M141.824 4.36857L141.504 12.0336H139.184L138.864 4.36857H141.824ZM140.384 16.1301C139.904 16.1301 139.509 15.9914 139.2 15.714C138.901 15.426 138.752 15.074 138.752 14.6579C138.752 14.2312 138.901 13.8738 139.2 13.5858C139.509 13.2977 139.904 13.1537 140.384 13.1537C140.853 13.1537 141.237 13.2977 141.536 13.5858C141.845 13.8738 142 14.2312 142 14.6579C142 15.074 141.845 15.426 141.536 15.714C141.237 15.9914 140.853 16.1301 140.384 16.1301Z" fill="white"/>
</svg>
