<svg width="49" height="48" viewBox="0 0 49 48" fill="none" xmlns="http://www.w3.org/2000/svg">
<g clip-path="url(#clip0_1656_4311)">
<path d="M47.8382 23.9996C47.8382 36.8895 37.3898 47.338 24.5005 47.338C11.6112 47.338 1.16211 36.8895 1.16211 23.9996C1.16211 11.1104 11.6112 0.661865 24.5005 0.661865C37.3898 0.661694 47.8382 11.1104 47.8382 23.9996Z" fill="white" stroke="#006DD3" stroke-width="1.20455"/>
<path fill-rule="evenodd" clip-rule="evenodd" d="M2.91933 24.2756C2.76853 12.3596 12.3096 2.5736 24.2263 2.42251C36.1423 2.27165 45.9283 11.8134 46.0794 23.7294C46.2299 35.6455 36.6885 45.4315 24.7725 45.582C12.8564 45.7331 3.07042 36.1917 2.91933 24.2756H2.91928H2.91933ZM24.2228 2.1534C12.158 2.30614 2.49743 12.2142 2.65023 24.2791C2.80308 36.3439 12.711 46.0039 24.7759 45.8517C36.8407 45.6989 46.5007 35.7909 46.3485 23.726C46.1957 11.6612 36.2877 2.0006 24.2228 2.1534Z" fill="#006DD3"/>
<path fill-rule="evenodd" clip-rule="evenodd" d="M23.7072 9.65823C21.0577 9.65196 17.9795 10.7022 15.9104 12.4149C15.9036 12.4194 15.9036 12.4377 15.9178 12.4451C17.1009 12.9143 17.9122 13.5369 19.1768 14.2451C19.2224 14.2701 19.2384 14.2593 19.248 14.2183C19.8598 11.111 23.653 11.973 24.0071 9.70726C23.9917 9.69187 23.9939 9.66393 23.9614 9.66222C23.8776 9.65994 23.7921 9.6588 23.7072 9.65823ZM25.2848 9.66222C25.2585 9.66222 25.25 9.67306 25.2511 9.71468C25.092 10.1138 25.5596 10.5294 25.8321 10.7985C25.8583 10.823 25.9016 10.8515 25.9341 10.8658C27.6275 11.5551 29.5016 12.0642 29.9121 14.0119C29.9206 14.0421 29.9263 14.0615 29.9577 14.0347C30.8602 13.436 31.7553 12.8288 32.6687 12.253C32.7155 12.2336 32.6984 12.2119 32.6687 12.1931C30.6048 10.7255 28.026 9.77055 25.2848 9.66222ZM14.7251 13.4012C13.0739 14.8654 11.6571 16.7805 10.9192 18.9322C10.9109 18.9533 10.9235 18.963 10.9529 18.9659C12.5687 19.1118 13.0967 17.0046 14.3351 16.2212C14.3516 16.2115 14.3665 16.2029 14.3653 16.183C14.2775 15.2229 14.2353 14.4138 14.7251 13.4012ZM34.6568 13.8619C34.748 14.6071 34.6785 15.3141 34.4806 16.0028C34.4721 16.0353 34.4732 16.0604 34.5103 16.0855C35.7042 16.7241 36.3513 18.589 37.731 18.662C37.7481 18.6694 37.7744 18.6705 37.7647 18.6477C37.2858 16.9835 35.9083 15.0142 34.6568 13.8619ZM38.2077 19.7384C36.5143 21.4363 39.2624 24.2813 35.5343 25.8692C35.2053 25.9661 34.8894 26.0813 34.5918 26.0824C33.7628 26.0864 32.5832 25.4541 32.5906 26.7124C32.5906 26.7352 32.6111 26.7512 32.6385 26.762C33.7902 27.2552 35.3467 28.3242 35.3718 29.972C35.4282 31.9361 33.3609 33.2589 33.6887 35.1244C38.1068 31.3038 39.9238 25.6628 38.2077 19.7384ZM10.5887 20.0189C10.5744 20.0229 10.564 20.0383 10.5511 20.0685C8.878 24.6405 10.522 31.748 15.6544 35.5024C15.6555 35.4055 15.7119 35.2036 15.7707 35.0679C15.7923 35.0155 15.7889 34.9482 15.7707 34.8843C15.5825 34.0576 15.0893 33.2241 14.6201 32.4128C13.0014 29.7257 13.9 27.8829 16.5136 26.6873C16.5472 26.6765 16.5546 26.6577 16.5364 26.6229C16.4959 26.534 16.456 26.4462 16.4166 26.3561C16.4047 26.3321 16.4166 26.2843 16.3568 26.2928C15.7707 26.3658 15.111 26.4177 14.5146 26.3909C13.6172 26.1908 12.7602 25.8333 12.1148 24.8828C10.9595 23.2699 12.5418 21.1005 10.6337 20.0309C10.6179 20.0218 10.603 20.0155 10.5887 20.0189ZM34.784 26.6275C34.8273 26.6275 34.8718 26.6338 34.9151 26.6457C35.4944 26.7512 36.3707 27.0922 36.8912 27.7364C36.9248 27.778 36.9095 27.8128 36.8576 27.8083C36.0212 27.7832 35.0816 27.6908 34.431 27.1782C34.3387 27.1053 34.2537 27.0329 34.3187 26.859C34.3666 26.7489 34.52 26.6645 34.6483 26.6417C34.695 26.6338 34.7395 26.6263 34.784 26.6275ZM14.0951 26.9684C14.1418 26.9673 14.1874 26.9684 14.2342 26.9719C14.273 26.9764 14.3123 26.9764 14.3385 27.0021C14.4993 27.1936 14.4674 27.4616 14.1669 27.6691C13.5323 28.0757 12.7967 28.0985 12.1192 28.1275C12.0927 28.1287 12.0462 28.0996 12.0929 28.0557C12.7103 27.4901 13.3932 26.9753 14.0951 26.9684ZM25.567 34.6745C25.5584 34.6734 25.5487 34.6757 25.5407 34.6819C25.0208 34.9288 24.2038 35.0491 23.7442 34.7908C23.6889 34.7635 23.6564 34.784 23.6347 34.8159C22.8092 36.2139 20.8473 36.1808 19.4544 35.8256C18.4196 35.5925 17.407 35.2971 16.5706 36.1255C20.9254 39.2659 27.6383 39.364 32.6767 35.9083C31.7263 35.4596 30.8636 35.7823 29.8186 36.0246C28.6355 36.2994 26.9747 36.548 25.6343 34.7047C25.6114 34.6985 25.5909 34.6757 25.567 34.6745ZM24.6969 34.9892C24.7089 34.9904 24.722 34.9915 24.738 34.9927C24.8891 35.0103 24.9752 35.0873 25.0675 35.1916C25.112 35.2504 25.128 35.3188 25.1205 35.3912C25.0955 36.0366 24.9849 36.6894 24.7676 37.2544C24.7631 37.2812 24.7437 37.2869 24.734 37.2544C24.482 36.4591 24.0515 35.654 24.5949 35.0274C24.6297 34.9972 24.6587 34.9875 24.6969 34.9892Z" fill="#006DD3"/>
<path fill-rule="evenodd" clip-rule="evenodd" d="M26.0916 3.64355C26.221 3.81443 26.3505 4.00463 26.3048 4.20971C26.1384 5.14788 25.9593 6.08412 25.7689 7.01859C25.7353 7.22726 25.5836 7.31678 25.4314 7.45703C26.4576 7.64347 28.3773 8.00608 29.407 8.19993C29.3796 7.79342 29.6904 7.55567 29.8152 7.18735C29.4731 7.42682 29.0364 7.51462 28.6305 7.42739C28.208 7.34757 27.1618 7.13946 26.7404 7.05223C26.8088 6.72554 26.8522 6.39257 26.928 6.06588C27.3385 6.13829 27.9993 6.29394 28.4087 6.34354C28.7576 6.42621 29.0216 5.94159 29.2114 5.71353C29.078 5.74374 28.8272 5.75914 28.6909 5.72835C28.261 5.64494 27.4885 5.48222 27.0586 5.39482C27.0968 5.08334 27.1629 4.77615 27.2279 4.47226C27.9645 4.66594 29.5045 4.73818 30.0513 5.3573C30.0695 5.0155 29.8762 4.59085 30.0707 4.36359C29.0529 4.16604 27.1093 3.83341 26.0916 3.64355ZM25.6007 3.65855C24.6201 3.66311 22.7409 3.76631 21.7608 3.77857C21.9706 4.12367 21.6587 4.42671 21.6513 4.77227C21.9837 4.47072 22.8133 4.38047 23.2449 4.39358C23.2437 5.33951 23.3412 6.28937 23.3543 7.2324C23.36 7.41085 23.2209 7.52431 23.1069 7.59615C23.5334 7.59159 24.2073 7.53913 24.6069 7.53229C24.4102 7.35156 24.3105 7.33673 24.307 7.08245C24.2375 6.21183 24.2027 5.19686 24.1788 4.32973C24.6201 4.29757 25.4314 4.37676 25.7917 4.59598C25.79 4.21513 25.4217 3.83632 25.6007 3.65855ZM21.3109 3.91358C20.6843 4.05024 19.2886 4.14842 18.7487 4.55858C18.1033 5.00666 17.9545 6.00088 18.7909 6.43704C19.3177 6.65256 20.3172 6.41823 20.8377 6.45985C21.1958 6.47467 21.3468 6.9707 21.1114 7.21358C20.6028 7.66571 19.2213 7.66571 18.6181 7.48326C18.7658 7.82934 18.9311 8.1281 19.0874 8.46961C19.2926 8.34076 19.6569 8.30883 19.889 8.26721C20.3833 8.19537 21.5544 7.87837 21.8845 7.47984C22.279 7.01631 22.2984 6.34468 21.9141 5.91992C21.5686 5.54134 20.4985 5.60822 20.0435 5.63855C19.7841 5.63855 19.5697 5.73006 19.3234 5.60856C19.1136 5.4642 19.1256 5.10381 19.3605 4.98226C19.812 4.74302 20.8354 4.70602 21.3069 4.8997C21.2796 4.56936 21.3218 4.24392 21.3109 3.91358ZM31.4048 4.75728C31.4892 4.96618 31.5382 5.16345 31.4384 5.36101C31.0667 6.16223 30.6442 6.95759 30.2508 7.76491C30.1402 8.00038 29.9988 8.14976 29.7371 8.2484C30.086 8.42685 30.6853 8.72618 31.0376 8.90463C30.89 8.36527 31.256 7.88122 31.4652 7.4462C31.6665 7.55624 32.2064 7.80824 32.3387 8.02718C32.516 8.32708 32.5593 8.63495 32.5975 8.94568C32.6146 9.22677 32.6374 9.43886 32.3472 9.53864C32.7549 9.70455 33.3957 10.0461 33.7749 10.2285C33.4739 9.60819 33.6597 8.76438 33.2578 8.15489C33.5195 8.16629 33.9585 8.2102 34.2367 8.03858C34.7396 7.74382 34.8622 7.27744 34.6905 6.66225C34.5959 6.33841 34.2778 6.15368 34.0075 6.02483C33.3621 5.70554 32.0508 5.07251 31.4048 4.75728ZM16.7013 5.16972C15.8016 5.67493 14.0724 6.5391 13.1844 7.05964C13.4161 7.12065 13.5769 7.20731 13.6869 7.40857C14.1311 8.2062 14.5741 9.00327 15.0142 9.8009C15.1283 9.99874 15.0935 10.2371 15.0034 10.4571C15.9265 9.94458 17.6546 9.04603 18.5805 8.53746C18.2914 8.37326 18.475 7.82535 18.3587 7.46501C18.2675 7.77974 17.9425 8.06595 17.6774 8.2598C17.2475 8.54829 16.2383 9.06256 15.7908 9.31742C15.6277 9.02836 15.4618 8.73245 15.3073 8.43597C15.6562 8.21932 16.4653 7.86127 16.8073 7.63378C17.0075 7.38291 16.89 7.02087 16.9345 6.72611C16.8467 6.83215 16.7327 6.92794 16.6078 6.99236C16.2326 7.20104 15.4094 7.65715 15.0291 7.86241C14.8848 7.58874 14.7121 7.32932 14.5872 7.04482C15.2822 6.72953 16.5285 5.88571 17.3205 5.93075C17.1226 5.64237 16.8045 5.51158 16.7013 5.16972ZM32.2184 5.89711C32.5616 6.06873 33.0656 6.29279 33.3775 6.46327C34.2048 6.89316 33.6164 7.79228 33.0177 7.45361C32.6756 7.33958 32.077 7.00149 31.7435 6.86465C31.8871 6.53055 32.0707 6.23122 32.2184 5.89711ZM12.371 7.66343C12.276 7.80026 12.1515 7.92512 12.0035 8.00494C11.5088 8.23528 10.6224 9.03463 10.4098 9.53864C10.1135 10.1156 10.1166 10.6464 10.466 11.3198C10.8641 12.114 11.4286 12.4823 12.2922 12.4823C13.1501 12.4293 13.9226 11.6778 14.2756 11.2149C14.47 10.9908 14.6587 10.7439 14.9438 10.6185C14.7043 10.3528 14.4523 10.1008 14.2083 9.83853C14.121 10.1572 13.9671 10.4315 13.7584 10.6972C13.45 11.0472 12.9713 11.5974 12.4272 11.5712C11.883 11.5444 11.7098 11.285 11.4672 11.0199C11.2246 10.7548 11.0577 10.4452 11.0998 9.96967C11.1419 9.49416 12.0845 8.61614 12.7649 8.58991C12.6089 8.29344 12.5273 7.96332 12.371 7.66343ZM9.05981 10.8619C8.81151 11.1824 8.37027 11.7394 8.10726 12.0478C8.35146 12.0119 8.57381 12.0325 8.7598 12.1784C9.4739 12.7343 10.187 13.2959 10.8972 13.8552C11.0796 13.9932 11.162 14.1996 11.1859 14.4356C11.4487 14.1226 11.8718 13.5741 12.1272 13.2691C11.906 13.2982 11.6906 13.3102 11.5198 13.1722C10.7944 12.6129 10.0812 12.0444 9.35982 11.4811C9.16249 11.3312 9.05245 11.1282 9.05981 10.8619ZM7.36482 13.0148C6.91229 13.9447 5.97594 15.6728 5.53112 16.6027C5.77793 16.5047 5.96334 16.5224 6.1873 16.6364C6.99223 17.0395 7.80115 17.4312 8.60597 17.8291C8.80347 17.9289 8.97639 18.1267 9.05593 18.332C9.50463 17.3867 10.3325 15.7139 10.8485 14.7766C10.7422 14.7766 10.6356 14.6876 10.5598 14.6124C10.3471 14.4105 10.2398 14.1802 10.0235 13.9824C10.0837 14.3575 10.0295 14.8068 9.86594 15.1711C9.67585 15.5771 9.17116 16.5611 8.98107 16.9676C8.66584 16.861 8.42227 16.6797 8.11855 16.5429C8.27067 16.1791 8.72006 15.3547 8.87593 14.9949C8.87764 14.784 8.62684 14.4276 8.44855 14.1728C8.44086 14.3096 8.3819 14.4487 8.31725 14.5747C8.12334 14.9698 7.68627 15.8445 7.48854 16.2356C7.21134 16.0953 6.85072 15.9596 6.57357 15.8228C6.76748 15.4282 7.25706 14.4408 7.45855 14.0496C7.61441 13.7423 7.86701 13.4852 8.17853 13.3295C7.85573 13.1995 7.64189 13.2395 7.36482 13.0148ZM7.94597 18.1855C8.07521 18.3947 8.10339 18.7488 8.11108 18.9991C8.14518 19.4711 7.86821 20.3663 7.79597 20.8258C6.92633 20.6553 6.05206 20.4455 5.18601 20.2557C4.94684 20.2101 4.85037 20.0179 4.70983 19.8127C4.61866 20.2044 4.46335 20.9444 4.37988 21.3395C4.55458 21.2107 4.6848 21.1103 4.88988 21.1559C5.81648 21.3503 6.73818 21.5539 7.66113 21.7631C7.87374 21.8087 8.08709 21.9707 8.19724 22.1719C8.39479 21.2757 8.76482 19.6376 8.9585 18.7368C8.86362 18.7448 8.76459 18.7607 8.68106 18.7077C8.41133 18.5589 8.21947 18.3263 7.94597 18.1855H7.94597Z" fill="#006DD3"/>
<path fill-rule="evenodd" clip-rule="evenodd" d="M7.95681 25.8657C7.82648 26.0527 7.63965 26.2061 7.41681 26.2483C6.56912 26.4883 5.66509 26.6719 4.69813 26.9045C4.50405 26.9741 4.3866 26.8926 4.20312 26.7512C4.28887 27.1434 4.42103 27.7831 4.51437 28.1754C4.85868 27.693 5.49969 27.7113 6.00678 27.542C6.12725 27.9485 6.26899 28.8008 6.40434 29.1988C6.61712 29.42 6.97039 29.4508 7.24805 29.5483C7.17595 29.44 7.04035 29.2096 7.01934 29.0791C6.92084 28.6492 6.73509 27.8287 6.63679 27.4028C6.96115 27.3304 7.27901 27.2346 7.60804 27.189C7.78218 27.8692 8.19004 29.1355 7.87433 29.7843C8.20544 29.6789 8.47852 29.314 8.77431 29.3909C8.57932 28.4776 8.13677 26.7871 7.95678 25.8657H7.95676H7.95681ZM8.0018 30.0244C7.89357 30.0209 7.78449 30.0306 7.67552 30.0426C6.9414 30.2 6.25934 30.562 5.94684 31.3289C5.53503 32.3985 6.34845 34.0433 7.43937 34.4453C8.14088 34.6961 8.83474 34.508 9.35552 34.1192C9.83923 33.7879 10.1673 33.2343 10.1543 32.492C10.124 31.6544 9.65576 30.8237 8.97306 30.3511C8.64836 30.123 8.32675 30.0329 8.00182 30.0244H8.00181H8.0018ZM7.9718 30.9583C8.37668 30.956 8.78791 31.0592 9.06677 31.4754C9.41347 31.9064 9.51866 32.5119 9.27305 32.8745C8.92412 33.3329 8.36167 33.6066 7.76934 33.5826C7.12531 33.5598 6.47277 32.7354 6.66309 31.9446C6.84405 31.3004 7.57498 30.9908 7.9718 30.9583ZM10.5106 34.0747C10.3523 34.0792 10.1982 34.1106 10.0455 34.1682C9.3129 34.4384 8.77531 34.9111 8.56065 35.7207C8.25967 36.8285 9.47117 38.2829 10.6155 38.4882C11.3501 38.6119 12.0005 38.3468 12.4452 37.8724C12.864 37.4619 13.1244 36.8479 12.9816 36.1181C12.8052 35.2988 12.1429 34.5964 11.388 34.2509C11.055 34.1271 10.7742 34.065 10.5106 34.0747ZM10.8743 34.971C11.1946 34.9721 11.4858 35.1004 11.703 35.3273C12.1042 35.6979 12.2933 36.1529 12.108 36.6352C11.853 37.2019 11.3792 37.568 10.7917 37.6484C10.1536 37.7367 9.32875 36.8923 9.41547 36.1962C9.51941 35.5576 9.9359 35.2971 10.278 35.1163C10.4807 35.0177 10.682 34.9698 10.8743 34.971ZM13.7246 36.6244C13.7183 36.9893 13.3443 36.8815 13.0488 37.341C13.4925 37.2966 14.2366 37.6923 14.5838 37.9517C14.0678 38.7351 13.5313 39.5008 13.008 40.2762C12.9108 40.4392 12.7404 40.4575 12.5616 40.4717C12.888 40.6975 13.4806 41.0932 13.8072 41.319C13.7422 41.0584 13.7662 40.8423 13.9082 40.6291C14.37 39.946 14.8381 39.2647 15.2987 38.5783C15.325 38.5503 15.3466 38.4859 15.3974 38.5024C15.7754 38.7077 16.3655 39.2214 16.4989 39.6353C16.6574 39.3303 16.6272 38.8434 16.9185 38.7242C16.1158 38.1712 14.5308 37.1654 13.7246 36.6244ZM17.1181 38.8924C17.2355 39.1062 17.2053 39.3508 17.1369 39.5755C16.8746 40.4535 16.5405 41.2431 16.2777 42.1183C16.219 42.3304 16.0861 42.4564 15.817 42.5191C16.65 42.7831 17.617 43.1354 18.4978 43.4045C19.4101 43.6999 20.2294 43.4798 20.328 42.5225C20.3856 41.9729 19.8 41.7186 19.5708 41.596C20.1741 41.6707 20.58 41.3486 20.6125 40.7824C20.6638 40.3794 20.2966 39.9386 19.4654 39.669C18.869 39.4745 17.719 39.0606 17.1181 38.8924ZM29.7405 39.5823C29.354 39.6821 28.7074 39.9523 28.3272 40.0817C28.5392 40.173 28.6858 40.2351 28.7576 40.4489C29.029 41.2733 29.3568 42.0425 29.6385 42.8646C29.7155 43.1235 29.8101 43.4165 29.6687 43.6708C30.5444 43.4011 32.0639 42.8526 32.9316 42.5647C32.882 42.4923 32.8068 42.4336 32.8113 42.3424C32.7897 42.0328 32.8678 41.7819 32.8416 41.4689C32.6409 41.8863 32.1996 42.1001 31.7503 42.2751C31.4972 42.3566 30.7856 42.6736 30.5348 42.6987C30.2577 41.8646 29.9276 40.9866 29.647 40.1524C29.5701 39.9364 29.6265 39.7853 29.7405 39.5823ZM17.9437 39.856C18.2641 39.9689 19.1769 40.1775 19.4882 40.3075C19.9221 40.4871 19.6404 41.2648 19.1877 41.165C18.8701 41.1137 17.9784 40.864 17.6808 40.7522C17.7646 40.4535 17.8513 40.1524 17.9437 39.856ZM22.1912 40.3075C22.2192 40.3651 22.2021 40.5054 22.1542 40.5686L20.5236 43.3287C20.3782 43.5653 20.2413 43.6731 20.0389 43.8282C20.4107 43.8858 21.0538 44.0705 21.4272 44.1423C21.3069 43.8806 21.3178 43.5568 21.5122 43.3071C22.088 43.3578 23.1645 43.4359 23.7369 43.5055C23.8532 43.7774 24.002 44.1041 23.7369 44.3527C24.1161 44.3499 24.7774 44.3356 25.1469 44.3607C24.9804 44.1628 24.8185 43.9639 24.7489 43.7079C24.5756 43.197 23.9313 41.2996 23.7289 40.7118C23.6941 40.6051 23.7409 40.4729 23.7443 40.4609L22.1912 40.3075ZM26.5004 40.3286C26.0842 40.397 25.3761 40.4791 24.9781 40.5282C25.1674 40.661 25.3077 40.7431 25.3345 40.9672C25.4325 41.8287 25.6064 42.6542 25.717 43.5163C25.7398 43.786 25.7444 44.1326 25.5551 44.3527C26.4673 44.266 28.1458 43.9935 29.0541 43.888C29.0193 43.8076 28.9606 43.7318 28.9834 43.6446C29.0244 43.3361 29.1396 43.071 29.1778 42.7591C28.8768 43.1035 28.4412 43.2882 27.9668 43.3709C27.6949 43.4165 26.9012 43.5448 26.6543 43.5391C26.5511 42.6651 26.4001 41.7426 26.294 40.8691C26.2644 40.6411 26.3482 40.5042 26.5004 40.3286ZM22.8589 40.9706L23.5237 42.7814C23.108 42.7574 22.3138 42.7084 21.8988 42.6617L22.8589 40.9706ZM17.5343 41.3275C17.9157 41.4763 18.5486 41.6907 18.8878 41.8218C19.6307 42.0807 19.4352 43.0767 18.5349 42.7671C18.1307 42.6388 17.5919 42.4706 17.2082 42.3247C17.3005 41.998 17.4419 41.6571 17.5343 41.3275Z" fill="#006DD3"/>
<path fill-rule="evenodd" clip-rule="evenodd" d="M37.4649 8.91927C36.8771 8.89419 36.4883 9.05611 36.0777 9.40333C35.6182 9.82124 35.3052 10.3064 35.3086 11.0345C35.324 11.6081 35.9506 12.5095 36.7043 12.985C36.9164 13.1418 37.2528 13.3373 37.2847 13.599C37.5345 13.3436 37.795 13.0916 38.0505 12.8527C37.4387 12.6691 36.4027 12.075 36.2539 11.3909C36.1593 10.8464 36.2927 10.6685 36.5242 10.3709C36.9563 9.84918 37.3942 9.66046 38.0505 9.84177C38.6371 10.0755 39.1628 10.8104 39.2084 11.3458C39.5134 11.1862 39.8025 11.059 40.1121 10.9034C39.8664 10.7512 39.758 10.5687 39.5916 10.3481C39.2312 9.82295 38.5533 9.07321 37.7312 8.94208C37.6388 8.93125 37.5487 8.92326 37.4649 8.91927ZM40.7011 11.721C40.6891 12.1052 40.4867 12.2238 40.2107 12.4291C39.5408 12.8875 38.9062 13.3544 38.238 13.7986C38.0482 13.9195 37.8024 14.0745 37.5322 13.9445C37.7494 14.2821 38.1787 14.8522 38.3988 15.1857C38.4216 14.8414 38.6063 14.6852 38.815 14.5483C39.5374 14.066 40.2164 13.5454 40.9411 13.0677C41.1503 12.9263 41.2701 12.8647 41.5483 12.9582C41.3328 12.6286 40.9183 12.0511 40.7011 11.721ZM41.9839 13.5283C41.7838 13.8305 41.3396 13.6469 41.0243 13.7684C41.408 13.9844 41.8317 14.6777 41.9913 15.0848C41.1332 15.4868 40.424 15.8477 39.5648 16.2548C39.4017 16.3374 39.144 16.285 38.9769 16.2211C39.1543 16.5809 39.4507 17.2138 39.6286 17.5712C39.7233 17.2941 40.0004 17.0587 40.2586 16.9446C41.0266 16.5957 41.6589 16.2582 42.4343 15.9286C42.631 16.3158 42.9611 17.0444 42.8505 17.4812C43.147 17.3021 43.2924 16.9121 43.6305 16.9486C43.22 16.0592 42.3984 14.4166 41.9839 13.5283ZM43.8477 17.3757C43.7662 17.7486 43.4275 17.9635 43.2177 18.2417C42.7975 18.7326 42.2923 19.2857 41.8003 19.7828C41.6829 19.8929 41.3915 19.9276 41.2148 19.9676C40.8487 20.0206 40.6783 20.0633 40.3977 19.8284C40.4855 20.223 40.6292 20.9265 40.7085 21.3211C40.8647 21.0845 41.0312 20.9454 41.3385 20.8672C41.6122 20.8182 41.8545 20.7127 42.0512 20.7988C42.9491 21.2874 44.6339 21.9836 44.8449 22.202L44.5376 20.7281C44.4378 20.8724 44.3203 20.9419 44.2006 20.8963C43.6618 20.6877 43.0221 20.39 42.5649 20.215C42.8995 19.8262 43.2907 19.4504 43.6447 19.0821C43.7987 18.8945 44.0096 18.8204 44.1966 19.0029L43.8477 17.3757Z" fill="#006DD3"/>
<path fill-rule="evenodd" clip-rule="evenodd" d="M41.718 26.0723C41.5475 26.0769 41.3542 26.1379 41.1478 26.2747C40.8542 26.533 40.7459 26.9372 40.6489 27.2987C40.5167 27.9093 40.1883 29.1642 40.068 29.7765C40.2709 29.6135 40.446 29.5952 40.6752 29.6454C41.5714 29.8387 42.4643 30.0417 43.3571 30.2349C43.5732 30.2766 43.7329 30.4459 43.8554 30.6358C43.9871 29.7862 44.5151 28.0593 44.5008 27.1926C44.4837 26.4822 43.8252 26.029 43.1952 26.1766C42.8377 26.277 42.637 26.6898 42.5578 26.9794C42.5566 26.5484 42.2294 26.0586 41.718 26.0723ZM41.7214 27.1026C41.9842 27.1043 42.2271 27.3466 42.157 27.651C42.0874 27.968 41.9614 28.6351 41.8839 28.9487C41.5788 28.8871 41.2618 28.8187 40.9608 28.7491C41.0475 28.4219 41.129 27.9572 41.2151 27.6248C41.3018 27.2479 41.5178 27.1026 41.7214 27.1026ZM43.3645 27.159C43.6382 27.1687 43.8891 27.4435 43.8286 27.7782C43.7437 28.1807 43.5886 28.923 43.5145 29.3193C43.1821 29.252 42.8377 29.1716 42.5019 29.1055C42.5869 28.7024 42.7174 28.1214 42.8246 27.7183C42.9238 27.3055 43.1507 27.1522 43.3645 27.159ZM40.0047 29.9527C39.7527 30.4054 39.5223 30.837 39.2583 31.2954C39.4585 31.1996 39.6563 31.1888 39.8211 31.2766C40.4066 31.5862 40.9055 31.8764 41.4853 32.1991C41.7094 32.3285 41.9523 32.5697 41.9774 32.889C41.9677 33.3166 41.6723 33.8337 41.2789 34.0076C40.9944 34.141 40.6706 34.0042 40.4545 33.8793C39.9231 33.56 39.5041 33.3331 38.9727 33.0093C38.7891 32.9038 38.6255 32.8257 38.609 32.4847C38.3547 32.9158 38.1255 33.3873 37.8586 33.8314C38.2127 33.6729 38.4567 33.7784 38.711 33.9358C39.1837 34.2077 39.5771 34.4358 40.0451 34.7083C40.4026 34.9113 40.7607 35.0453 41.2487 34.9364C41.6701 34.8389 42.0275 34.4312 42.2847 34.011C42.5566 33.5709 42.7955 33.0583 42.7682 32.5714C42.7442 32.0685 42.4381 31.7253 42.0971 31.4984C41.5406 31.1614 41.0988 30.9294 40.5372 30.6021C40.3211 30.4721 40.0115 30.2766 40.0047 29.9527ZM40.3114 35.1353C40.2994 35.559 40.0623 36.0573 39.7606 36.4028C39.6084 36.6069 39.1187 37.1622 38.9208 37.3749C38.2503 36.8059 37.6403 36.2899 36.9675 35.7249C36.7896 35.5783 36.6494 35.3742 36.6408 35.1428C36.3626 35.4295 35.9869 35.8554 35.7291 36.1627C35.9595 36.1302 36.1756 36.242 36.3483 36.3885C37.008 36.9513 37.6477 37.5282 38.317 38.0824C38.5177 38.2649 38.6209 38.4416 38.6318 38.7318C39.239 38.0465 40.3656 36.7517 40.9574 36.055C40.877 36.0202 40.7698 36.0077 40.7242 35.9119C40.5492 35.5926 40.4967 35.3885 40.3114 35.1353ZM35.6653 36.242C35.4771 36.4889 35.1003 36.632 34.8289 36.7517C34.2422 37.0316 33.4189 37.701 33.2473 38.4849C33.1105 39.1606 33.2593 39.7062 33.6327 40.1982C34.0022 40.6977 34.468 40.9879 35.1111 41.0044C35.8306 40.9976 36.5975 40.5352 37.1653 39.9582C37.3524 39.7712 37.5816 39.5141 37.8552 39.493C37.6272 39.2216 37.4367 38.9154 37.1881 38.6566C37.0274 39.152 36.2531 39.9656 35.7291 40.1082C35.2668 40.2125 34.9572 40.0876 34.6191 39.7963C34.2433 39.4074 34.0096 38.9285 34.1652 38.3681C34.3967 37.6457 35.3557 37.1166 35.9583 37.2209C35.8489 36.8982 35.7662 36.5527 35.6653 36.242Z" fill="#006DD3"/>
<path fill-rule="evenodd" clip-rule="evenodd" d="M24.6068 9.78589C24.5304 10.006 24.4785 10.2962 24.4272 10.551C24.4164 10.6069 24.3885 10.6451 24.3548 10.6856C22.6484 12.4029 20.54 11.9028 19.7543 14.4212C19.6654 14.6338 19.7783 14.859 20.1585 15.0694C20.1967 15.0922 20.2304 15.0825 20.2304 15.0426C20.1346 12.3082 23.8291 12.4929 24.637 10.5955C24.6456 10.5761 24.673 10.5812 24.6815 10.5955C25.3606 11.8624 26.4826 12.0283 27.5083 12.6212C28.2763 13.0642 28.8299 13.4662 28.9867 14.7245C28.9918 14.7838 29.0084 14.773 29.0386 14.7427C29.1549 14.6145 29.4371 14.5483 29.4286 14.3562C29.18 12.4998 27.1354 12.099 25.4951 11.3344C25.4267 11.282 25.3571 11.2295 25.2887 11.177C24.9455 10.7711 24.6838 10.3133 24.6068 9.78589ZM24.5772 12.1075C24.5589 12.1087 24.5435 12.1127 24.5276 12.1218C24.5099 12.1303 24.4928 12.1486 24.4831 12.1674C24.474 12.1845 24.4774 12.2387 24.4831 12.2757C24.4894 12.2997 24.511 12.3128 24.5242 12.3282C24.5515 12.3618 24.5755 12.3812 24.6108 12.4074C24.6547 12.4365 24.7089 12.4006 24.7186 12.3658C24.7317 12.3054 24.7317 12.2387 24.7186 12.1856C24.7152 12.1662 24.7003 12.1543 24.6884 12.1366C24.6718 12.1184 24.6536 12.1087 24.6251 12.1075C24.6131 12.1064 24.5937 12.1052 24.5772 12.1075ZM25.1348 12.6246C25.1291 12.6258 25.1268 12.6269 25.1205 12.6321C25.1097 12.6406 25.1011 12.6549 25.1011 12.6691C25.1 12.7438 25.0664 12.8527 25.1348 12.8915C25.1684 12.9069 25.2106 12.9126 25.2368 12.8829C25.25 12.8613 25.2756 12.8538 25.2739 12.8156C25.2739 12.7974 25.2488 12.7917 25.2408 12.7712C25.23 12.741 25.2357 12.6874 25.2249 12.6657C25.2152 12.6497 25.2055 12.6343 25.1878 12.6321C25.1696 12.6286 25.153 12.6201 25.1348 12.6246ZM24.1079 12.6355C24.0583 12.6526 24.0059 12.6885 23.9876 12.7518C23.966 12.7894 23.9671 12.8191 23.9876 12.8419C24.0139 12.8806 24.0464 12.9263 24.092 12.9473C24.1308 12.9656 24.1809 12.9656 24.198 12.8829C24.2168 12.8145 24.218 12.7181 24.1872 12.6919C24.1473 12.6634 24.157 12.6235 24.1079 12.6355ZM24.6513 13.5392C24.4329 14.1965 24.3765 14.5278 24.2208 15.0512C24.5059 15.0535 24.6633 15.0546 24.8685 15.0586C24.7015 14.4622 24.6935 14.2256 24.6513 13.5392Z" fill="#006DD3"/>
<path fill-rule="evenodd" clip-rule="evenodd" d="M14.5719 16.7875C14.5622 16.7875 14.5502 16.7926 14.5383 16.8023C13.0177 17.8748 12.6049 19.7756 10.6494 19.4615C12.0374 20.1103 12.004 21.7056 12.1455 23.1851C12.2651 24.4314 13.2181 26.1105 15.7875 25.761C15.816 25.7587 15.8353 25.7359 15.8171 25.7086C15.6529 25.4742 15.1021 25.5512 14.9653 25.5284C12.9313 25.147 12.5869 23.2763 12.1644 21.1594C12.0661 20.5476 11.6692 20.161 11.4256 19.7015C11.4079 19.6548 11.3921 19.6399 11.4518 19.6291C12.7477 19.3811 13.7247 18.2568 14.7635 17.0612C14.7851 17.048 14.7891 17.0184 14.7635 16.9967C14.7047 16.938 14.6512 16.873 14.5981 16.8023C14.5884 16.7926 14.5827 16.7863 14.5719 16.7875ZM14.3775 19.2477C14.3592 19.2488 14.3399 19.2528 14.3245 19.2619C14.3062 19.2705 14.2897 19.2887 14.2788 19.3075C14.2703 19.3246 14.2743 19.3788 14.2788 19.4159C14.2863 19.4398 14.3113 19.4529 14.3245 19.4683C14.3518 19.502 14.3763 19.5213 14.4111 19.5476C14.455 19.5766 14.5058 19.5407 14.5155 19.5059C14.5286 19.4455 14.5286 19.3788 14.5155 19.3258C14.5115 19.3064 14.4972 19.2944 14.4852 19.2767C14.4687 19.2585 14.4505 19.2488 14.422 19.2477C14.4094 19.2465 14.394 19.2454 14.3775 19.2477ZM14.9619 19.779C14.9556 19.7808 14.9499 19.783 14.9436 19.7876C14.9328 19.795 14.9243 19.8093 14.9243 19.8247C14.9208 19.8982 14.8826 20.006 14.9511 20.0459C14.9835 20.0635 15.0252 20.0675 15.0514 20.0385C15.0662 20.0168 15.0924 20.0122 15.0924 19.9752C15.0936 19.9558 15.0708 19.9507 15.0639 19.9296C15.0542 19.8993 15.0588 19.8452 15.048 19.8247C15.0394 19.8081 15.0292 19.7899 15.0109 19.7876C14.9927 19.783 14.9796 19.7756 14.9619 19.779ZM13.9271 19.8583C13.878 19.8754 13.825 19.9147 13.8073 19.9786C13.7857 20.0157 13.7868 20.0419 13.8073 20.0647C13.8324 20.1035 13.8695 20.1491 13.9151 20.1696C13.9539 20.1884 14.004 20.1924 14.0211 20.1092C14.04 20.0407 14.0377 19.9415 14.0052 19.9147C13.9658 19.8862 13.9767 19.8463 13.9271 19.8583ZM14.5274 20.7511C14.447 21.4148 14.2047 22.1731 13.9681 22.6714C14.2441 22.6343 14.4647 22.802 14.4818 23.0158C14.5514 22.7734 14.7372 22.587 14.9579 22.652C14.8131 22.0499 14.6341 21.4028 14.5274 20.7511Z" fill="#006DD3"/>
<path fill-rule="evenodd" clip-rule="evenodd" d="M16.698 27.2153C16.6872 27.2181 16.6752 27.2216 16.6609 27.2273C14.3062 28.1372 13.8359 30.2513 15.1523 32.1128C16.1415 33.7748 16.5794 34.4596 16.109 35.7954C17.9495 33.6043 21.2101 37.1489 23.0808 34.4157C23.1059 34.382 23.0665 34.3592 23.0277 34.3216C22.9365 34.2583 22.8407 34.2161 22.7472 34.179C22.6777 34.1528 22.6395 34.1682 22.5973 34.2281C21.8316 35.0348 19.3486 34.8558 17.4711 34.8615C17.4135 34.8615 17.2419 34.8917 17.1855 34.9219C17.0053 35.0143 16.8229 35.0958 16.6307 35.0787C16.5794 35.0787 16.5013 35.0514 16.5144 34.9448C16.6079 33.5793 15.7954 32.7115 15.2806 31.5849C15.1198 31.2006 13.9271 29.0455 16.7955 27.7364C16.8086 27.7113 16.836 27.6965 16.8325 27.6583C16.824 27.5249 16.7966 27.3932 16.7579 27.2563C16.751 27.2227 16.7316 27.2107 16.698 27.2153ZM18.8281 29.818C18.8098 29.8209 18.791 29.8243 18.775 29.8328C18.7574 29.8425 18.7403 29.8602 18.7311 29.8784C18.7226 29.8961 18.7249 29.9503 18.7311 29.9873C18.7368 30.0113 18.7619 30.0233 18.775 30.0392C18.8041 30.0729 18.8269 30.0917 18.8617 30.1185C18.9062 30.147 18.9615 30.1111 18.9706 30.0763C18.9826 30.0164 18.9843 29.9491 18.9706 29.8961C18.966 29.8773 18.9478 29.8665 18.9375 29.8482C18.9193 29.8288 18.905 29.8209 18.8771 29.818C18.864 29.8169 18.8463 29.8157 18.8281 29.818ZM19.421 30.3209C19.4147 30.322 19.4079 30.3232 19.4016 30.3283C19.3919 30.3368 19.3822 30.3511 19.3834 30.3653C19.38 30.44 19.3418 30.5466 19.409 30.5877C19.4427 30.6042 19.4797 30.6077 19.5071 30.5791C19.5202 30.5575 19.5516 30.5541 19.5516 30.5153C19.5527 30.4976 19.5265 30.4925 19.5179 30.4708C19.5082 30.4412 19.5168 30.387 19.5071 30.3653C19.4974 30.3488 19.4883 30.3306 19.4689 30.3283C19.4518 30.3232 19.4387 30.3175 19.421 30.3209ZM18.3634 30.3847C18.3144 30.4013 18.2619 30.4412 18.2437 30.5045C18.2208 30.5404 18.2231 30.5683 18.2437 30.5911C18.2687 30.6293 18.3024 30.6738 18.348 30.6955C18.3862 30.7148 18.4369 30.7183 18.4523 30.6356C18.4717 30.5672 18.474 30.4674 18.4415 30.4412C18.4022 30.4121 18.413 30.3728 18.3634 30.3847ZM18.9039 31.2388C18.8235 31.9025 18.5806 32.6608 18.3446 33.1591C18.6205 33.122 18.8412 33.2862 18.8583 33.5011C18.9278 33.2588 19.1137 33.0752 19.3343 33.1408C19.189 32.5387 19.0094 31.8916 18.9039 31.2388Z" fill="#006DD3"/>
<path fill-rule="evenodd" clip-rule="evenodd" d="M32.2792 27.212C32.2672 27.2131 32.2535 27.2251 32.249 27.2382C32.1971 27.3488 32.1446 27.4543 32.0916 27.5649C32.0448 27.6897 32.0426 27.7963 32.2307 27.8562C35.6043 29.2354 33.9434 31.845 33.0637 33.3764C32.9725 33.5337 32.7541 33.9978 32.7376 34.2019C32.7039 34.4192 32.7376 34.6085 32.7324 34.8354C32.7324 34.8884 32.6583 34.9026 32.6173 34.8952C30.4576 34.4802 28.5892 36.3884 26.8189 34.3291C26.6558 34.1529 26.4603 34.1358 26.3884 34.1911C26.3103 34.2498 26.2527 34.3148 26.1974 34.4009C26.1604 34.4528 26.1615 34.4825 26.2048 34.5355C28.0453 37.1165 30.766 34.0685 33.1008 35.3525C32.554 34.04 33.6316 32.7669 34.241 31.622C35.5957 29.3204 34.0107 27.9058 32.2911 27.212C32.286 27.2097 32.2837 27.212 32.2792 27.212ZM30.4912 29.7691C30.4729 29.7713 30.4576 29.7753 30.4416 29.7845C30.4239 29.793 30.4068 29.8112 30.3971 29.8289C30.3891 29.8472 30.3914 29.9047 30.3971 29.9418C30.4034 29.9658 30.4251 29.9754 30.4382 29.9908C30.4655 30.0233 30.4895 30.0439 30.5243 30.069C30.5687 30.0992 30.6229 30.0633 30.6326 30.0285C30.6457 29.9686 30.6457 29.9002 30.6326 29.8483C30.6292 29.8278 30.6143 29.8169 30.6035 29.7993C30.5858 29.781 30.5676 29.7713 30.5391 29.7691C30.5271 29.7679 30.5077 29.7668 30.4912 29.7691ZM31.0573 30.2873C31.0511 30.2873 31.0442 30.2902 31.038 30.2947C31.0271 30.3021 31.0191 30.3175 31.0191 30.3318C31.0163 30.4053 30.9781 30.5131 31.0454 30.5524C31.079 30.5707 31.1195 30.5741 31.1474 30.5456C31.1605 30.5239 31.1879 30.5205 31.1879 30.4817C31.1879 30.4641 31.1668 30.4578 31.1583 30.4361C31.1486 30.4065 31.1531 30.3535 31.144 30.3318C31.1343 30.3153 31.128 30.297 31.1087 30.2947C31.0921 30.2902 31.0739 30.2839 31.0573 30.2873ZM30.0111 30.3654C29.9615 30.3825 29.9125 30.423 29.8948 30.4857C29.8732 30.5228 29.8743 30.549 29.8948 30.5718C29.921 30.6106 29.9535 30.6556 29.9992 30.6762C30.0374 30.6955 30.0875 30.699 30.1046 30.6163C30.124 30.5479 30.1212 30.4481 30.0887 30.4219C30.0505 30.3934 30.0602 30.3535 30.0111 30.3654ZM30.5847 31.2212C30.5054 31.8849 30.262 32.6432 30.0254 33.1409C30.3025 33.1038 30.5231 33.272 30.5391 33.4853C30.6086 33.243 30.7945 33.0571 31.0152 33.1221C30.8703 32.5194 30.6913 31.8729 30.5847 31.2212Z" fill="#006DD3"/>
<path fill-rule="evenodd" clip-rule="evenodd" d="M34.3275 16.7526C34.3207 16.7555 34.3144 16.7612 34.3087 16.7686C34.2831 16.7982 34.262 16.963 34.2557 17.0719C34.2546 17.0947 34.2546 17.113 34.2785 17.1283C34.762 17.4225 36.2107 19.0651 37.473 19.3519C37.5283 19.3639 37.5352 19.4106 37.5078 19.4386C36.0066 21.2026 37.7969 23.9576 34.8378 25.0078C34.2882 25.1588 33.7352 25.087 33.6331 25.453C33.6303 25.4662 33.6485 25.4827 33.6593 25.4827C35.4388 25.5956 36.5488 24.9958 36.8812 23.7249C37.3094 22.3087 36.5032 20.2966 38.0215 19.1985C38.0597 19.1695 38.0392 19.1193 38.0056 19.1227C36.4707 19.2789 35.4895 17.6506 34.3492 16.7566C34.3435 16.7526 34.3338 16.7515 34.3275 16.7526ZM34.815 19.1227C34.7968 19.1267 34.778 19.1324 34.762 19.1421C34.7443 19.1507 34.7272 19.1683 34.7175 19.1877C34.7095 19.2042 34.7118 19.2584 34.7175 19.2955C34.7238 19.3194 34.7455 19.3331 34.7586 19.3485C34.7859 19.3821 34.8099 19.3975 34.8447 19.4226C34.8891 19.4528 34.9433 19.4203 34.953 19.3856C34.9661 19.3257 34.9661 19.2584 34.953 19.2054C34.9496 19.1866 34.9348 19.1706 34.9239 19.1529C34.9062 19.1347 34.888 19.125 34.8595 19.1227C34.8475 19.1227 34.8316 19.1204 34.815 19.1227ZM35.3356 19.7014C35.3299 19.7026 35.3236 19.7037 35.3179 19.7083C35.3071 19.7168 35.3019 19.7311 35.3019 19.7459C35.2985 19.82 35.2614 19.9266 35.3287 19.9677C35.3607 19.9842 35.3994 19.9882 35.4256 19.9591C35.4399 19.9375 35.4678 19.934 35.4678 19.8958C35.4678 19.8776 35.445 19.873 35.4376 19.8514C35.4279 19.8211 35.4331 19.767 35.4222 19.7459C35.4137 19.7288 35.4063 19.7111 35.3886 19.7083C35.3703 19.7037 35.3538 19.6974 35.3356 19.7014ZM34.2643 19.7083C34.2147 19.7254 34.1656 19.7647 34.148 19.8286C34.1263 19.8656 34.1274 19.8918 34.148 19.9146C34.173 19.9534 34.2067 19.999 34.2523 20.019C34.2905 20.0384 34.3407 20.0418 34.3578 19.9591C34.3754 19.8907 34.3743 19.7949 34.3424 19.7687C34.3025 19.7396 34.3133 19.6963 34.2643 19.7083ZM34.8413 20.5555C34.762 21.2191 34.5185 21.9774 34.2819 22.4757C34.5579 22.4387 34.7802 22.6063 34.7956 22.8212C34.8652 22.5789 35.0511 22.3914 35.2723 22.4564C35.1269 21.8554 34.9479 21.2072 34.8413 20.5555Z" fill="#006DD3"/>
<path fill-rule="evenodd" clip-rule="evenodd" d="M33.3076 12.6431C33.3019 12.6442 33.2956 12.6442 33.2887 12.6476C31.9255 13.0331 30.0845 14.6061 28.5679 15.9847C28.5235 16.0355 28.4625 16.0463 28.4129 16.0292C27.4048 15.6979 26.2326 15.6552 25.256 15.6284C23.8625 15.5001 22.1874 15.6706 20.6885 16.1563C20.6241 16.1791 20.5756 16.1204 20.5277 16.0628C19.3413 14.7429 17.6696 13.6619 15.8657 12.9093C15.8155 12.8854 15.7733 12.8637 15.7157 12.9168C14.7898 13.7708 14.9933 16.3006 15.7881 17.6723C15.8816 17.8713 15.9021 18.2203 15.9044 18.3394C15.9609 19.0772 16.1046 19.7146 16.2978 20.4022C16.3457 20.8292 16.5094 21.2637 16.7551 21.632C16.803 21.6907 16.7825 21.7438 16.7477 21.782C16.4335 22.0967 16.1467 22.3943 15.8326 22.7084C15.8098 22.7301 15.7665 22.7455 15.7243 22.7529C15.4637 22.7831 15.3822 22.8681 15.259 23.1691C15.2408 23.2124 15.2431 23.2427 15.2659 23.2786C15.3103 23.3613 15.6125 23.8847 15.8622 24.1629C16.1034 24.4018 16.0133 24.6287 15.8098 24.8459C16.1946 25.1338 16.8834 25.6846 16.9244 25.7684C16.9678 25.9902 17.3589 26.0649 17.1257 26.383C17.1873 26.3973 17.2243 26.4201 17.2722 26.4583C17.307 26.4959 17.3144 26.5318 17.3178 26.5712C17.3492 26.9167 17.4142 27.2303 17.6057 27.561C18.3857 28.8837 19.2597 28.6796 20.2985 29.8073C20.92 30.4829 21.5335 30.5097 21.956 31.7014C21.9172 32.1535 21.8932 32.4306 22.0797 32.8217C22.3003 33.2995 22.8437 33.3177 23.5421 33.6353C23.6356 33.6718 23.6875 33.7003 23.7559 33.771C23.9384 33.9489 24.1482 34.0629 24.3859 34.1758C24.5781 34.2573 24.8055 34.2573 24.9823 34.1684C25.3181 33.9762 25.3888 34.1154 26.0097 33.6689C26.5952 33.4962 27.5514 32.7749 27.4493 31.5474C27.4527 31.5115 27.4613 31.4875 27.4721 31.4562C27.4904 31.3997 27.5428 31.3433 27.5924 31.2886C27.8285 31.0063 28.0987 30.7566 28.2641 30.4145C28.2977 30.3319 28.3268 30.2515 28.402 30.1893C30.7396 28.281 29.9129 29.1197 30.7579 28.472C32.4905 27.1544 31.3531 25.6162 33.3823 24.7558C33.1074 24.1737 33.2009 24.1207 34.0949 22.8812C33.6223 22.6315 33.2933 22.3447 32.9655 22.1155C31.9375 21.3093 32.8708 20.6251 32.9552 20.2294C33.0139 20.0048 33.1023 19.7214 33.124 19.4347C33.2334 18.7739 33.1719 17.995 33.5094 17.6495C33.758 17.4095 33.8298 16.0953 33.8692 15.9887C34.1417 15.1306 34.0419 15.0155 34.0915 14.4767C34.0995 14.4048 34.1252 14.3473 34.0915 14.268C33.9017 13.7446 33.669 13.2383 33.4011 12.7366C33.3771 12.6933 33.3594 12.6516 33.3258 12.6431C33.3207 12.6419 33.3138 12.6431 33.3076 12.6431ZM32.498 14.6614C32.3885 15.7378 31.9962 16.4505 32.1188 17.3531C31.6616 17.9147 31.8149 18.962 31.3947 19.5886C31.3674 19.6245 31.3303 19.645 31.2858 19.6411C30.7277 19.5487 30.3365 18.8457 29.8616 18.4483C29.8131 18.4101 29.7892 18.3742 29.8052 18.336C29.9984 17.9061 30.442 17.4751 30.0976 17.0383C30.1147 15.7869 31.6097 15.5856 32.498 14.6614ZM16.4216 14.8678C17.2984 15.3587 17.8578 16.1831 18.2888 16.1951C18.3561 16.2994 18.4518 16.4072 18.5322 16.4916C19.1776 17.2259 18.6656 17.4996 19.2329 18.4415C19.2945 18.5732 19.3219 18.7015 19.2329 18.7818C18.8538 19.112 18.5168 19.4466 18.2021 19.8092C17.7859 20.3144 17.5829 20.1285 17.4598 19.8092C17.3828 19.5726 17.3013 19.3052 17.4079 19.0327C17.474 18.8828 17.4341 18.7596 17.3212 18.6165C17.1702 18.4044 17.047 18.1798 16.9278 17.9563C16.8857 17.8725 16.8583 17.8006 16.8418 17.6951C16.6918 16.7664 16.7192 15.3775 16.4216 14.8678ZM27.3148 24.062C27.3786 24.0551 27.4351 24.099 27.4425 24.1629C27.4493 24.2279 27.4014 24.2877 27.3376 24.2946C27.2731 24.3009 27.2167 24.2541 27.2093 24.1891C27.2036 24.1258 27.2515 24.0694 27.3148 24.062ZM21.3259 24.0728C21.3909 24.0671 21.4468 24.1099 21.4531 24.1749C21.4605 24.2387 21.412 24.2946 21.3488 24.302C21.2849 24.3094 21.2273 24.2649 21.2216 24.2011C21.2142 24.1367 21.2621 24.0802 21.3259 24.0728ZM30.9751 26.6795C31.0697 26.6806 31.0988 26.769 31.088 26.8591C30.9871 28.1311 30.3941 27.781 29.0395 28.9857C28.6854 29.2685 28.8017 29.5433 28.3239 29.9459C27.9237 30.3199 27.5502 30.711 27.2093 31.1951C27.154 31.2777 27.1135 31.1899 27.1084 31.1529C27.0918 31.052 27.032 30.9379 26.9476 30.8456C26.7235 30.5936 27.081 30.6249 26.6779 30.0211C26.5109 29.7765 26.3176 30.0918 26.2013 29.695C26.1294 29.439 26.1978 29.565 26.1078 28.9709L26.3444 28.7754C26.4556 29.0924 26.6118 29.3575 26.7822 29.5781C26.8073 29.6083 26.7606 29.8757 26.8649 30.1112C26.8866 29.7395 27.219 29.5257 26.7452 28.8586C26.6836 28.7719 26.6517 28.687 26.6289 28.5849C26.626 28.5741 26.6237 28.5655 26.6215 28.5547C27.5189 27.9715 28.5235 27.4954 29.4716 27.1026C29.4232 27.1567 29.3764 27.2109 29.3285 27.2685C29.3069 27.2947 29.349 27.3044 29.3622 27.2987C29.4197 27.2827 29.4471 27.2901 29.4927 27.2987C29.5229 27.3164 29.5195 27.3477 29.5195 27.3762C29.5264 27.4868 29.438 27.4931 29.4642 27.6163C29.6204 27.4161 29.7692 27.2217 29.9283 27.0393C29.9659 26.9925 30.015 26.9372 30.0891 26.9458L30.2624 26.9686C30.3211 26.9709 30.3776 26.96 30.442 26.9418C30.5948 26.8819 30.7088 26.8078 30.8548 26.7092C30.9027 26.6863 30.9426 26.6795 30.9751 26.6795ZM18.2323 26.8819C18.238 26.8819 18.2477 26.8859 18.2551 26.8893C18.705 27.1151 19.3185 27.2565 19.6315 27.3882C19.7957 27.4652 19.9724 27.5792 20.0996 27.5986C20.152 27.602 20.152 27.5735 20.1258 27.5421C20.0922 27.4891 20.0585 27.4389 20.0249 27.3922C20.798 27.7508 21.5141 28.167 22.2713 28.6676C22.269 28.6739 22.2655 28.6796 22.2644 28.6859C22.2427 28.7503 22.2211 28.809 22.1994 28.862C22.1874 28.8922 22.1743 28.9259 22.1624 28.9521C22.1527 28.9749 22.1418 28.9989 22.1321 29.0194C22.1145 29.0576 22.0962 29.0998 22.0797 29.1323C22.058 29.1739 22.0341 29.2229 22.0158 29.2594C22.0101 29.2737 22.0039 29.2868 21.9976 29.301C21.9856 29.3278 21.9725 29.3541 21.9645 29.3791C21.9582 29.3974 21.9537 29.4139 21.9485 29.4322C21.9463 29.4402 21.9428 29.4487 21.9417 29.4584C21.9366 29.4823 21.9354 29.5063 21.9332 29.5325C21.932 29.557 21.932 29.5821 21.9332 29.6083C21.9354 29.6363 21.9366 29.6637 21.9417 29.695C21.9508 29.7703 21.9725 29.7993 21.9976 29.8113C22.005 29.8147 22.0158 29.8159 22.0244 29.8182C22.0421 29.8221 22.0768 29.8279 22.0877 29.7993C22.0962 29.7725 22.1093 29.7463 22.1213 29.7212C22.1333 29.695 22.1441 29.6711 22.1589 29.6454C22.1863 29.5952 22.2188 29.5451 22.2524 29.4955C22.2593 29.4846 22.2667 29.4727 22.2752 29.4618C22.3362 29.3757 22.4035 29.2931 22.4657 29.2075C22.4719 29.199 22.4754 29.1921 22.4816 29.1847C22.5067 29.1477 22.5295 29.1095 22.5523 29.0718C22.5609 29.0587 22.57 29.0445 22.5786 29.0314C22.6002 28.9937 22.6219 28.9567 22.6384 28.9185L23.1225 29.2782C23.0421 29.4749 22.9389 29.7418 22.9087 29.931C22.8522 30.3569 22.5905 30.2612 22.395 30.0992C22.4069 30.5383 22.4406 30.727 22.196 31.1118C22.1635 31.1671 22.1333 31.1477 22.1133 31.1118C21.5215 29.971 20.9502 30.2429 20.2016 29.0274C20.1343 28.8512 20.0072 28.683 19.762 28.5918C18.8395 28.2286 18.1805 27.9789 18.2021 26.919C18.2033 26.9002 18.213 26.8819 18.2323 26.8819ZM26.3695 30.6922C26.4077 30.6945 26.4413 30.727 26.4556 30.7675C26.642 31.1877 26.8735 31.9266 26.7976 32.1654C26.524 33.2145 25.7851 33.3884 25.0986 33.2983C24.5838 33.2311 24.5815 33.1102 24.5729 32.7658C24.5741 32.7282 24.626 32.7139 24.6676 32.702C25.2896 32.5064 25.6636 32.1677 25.6796 31.5212C25.683 31.4334 25.6938 31.341 25.6494 31.2618C25.8233 31.1506 25.984 31.0354 26.1414 30.8912C26.146 30.8866 26.1522 30.8815 26.1557 30.8758C26.2035 30.7999 26.2577 30.7389 26.3324 30.699C26.3455 30.6945 26.3575 30.6911 26.3695 30.6922ZM22.9121 30.7714C22.9326 30.7652 22.9509 30.776 22.9725 30.8011C22.9879 30.8182 23.0096 30.8718 23.0586 30.8718C23.1424 30.9778 23.2593 31.0691 23.3694 31.1495C23.3357 31.1825 23.3152 31.2213 23.3021 31.2618C23.2673 31.3615 23.2736 31.5309 23.3021 31.6854C23.314 31.7766 23.3454 31.857 23.3922 31.9363C23.6168 32.2858 23.7764 32.4425 24.0296 32.6153C24.1351 32.6791 24.2514 32.7345 24.3859 32.7213C24.423 32.7162 24.4446 32.7413 24.4384 32.7727C24.3979 33.2875 24.1636 33.3223 23.5723 33.2493C22.2621 32.9876 22.1464 32.1341 22.8556 30.8456C22.8716 30.8 22.8933 30.7771 22.9121 30.7714ZM24.6117 33.5566C24.7924 33.5526 24.9846 33.5589 25.1733 33.5828C25.2018 33.5885 25.2041 33.6125 25.1961 33.6319C25.1693 33.7026 25.0901 33.7926 25.0496 33.8274C25.0245 33.8468 24.9857 33.8542 24.9521 33.8645C24.8107 33.9021 24.59 33.9186 24.5513 33.9129C24.5165 33.9055 24.4817 33.8924 24.4492 33.8719C24.3261 33.8023 24.2109 33.7219 24.0894 33.6478C24.0632 33.6273 24.0621 33.5959 24.0929 33.5914C24.2565 33.5754 24.4293 33.5612 24.6117 33.5566Z" fill="#006DD3"/>
<path fill-rule="evenodd" clip-rule="evenodd" d="M33.1616 13.5957C33.1542 13.5957 33.1468 13.5968 33.1388 13.5991C31.6496 14.1408 29.8023 15.2183 28.8416 16.6483C28.4539 16.9607 28.0565 17.2652 27.6449 17.5326C28.5007 16.3951 26.7931 16.3199 24.7348 16.0964C23.3203 15.9755 21.6321 16.4179 21.0825 16.7195C21.0329 16.748 21.0021 16.8045 21.0414 16.8547C21.1948 17.073 21.2421 17.3302 21.3328 17.5713C21.3453 17.5976 21.3197 17.5998 21.2997 17.5822C19.5089 15.9789 16.8332 13.8163 15.9415 13.6031C15.8993 13.5957 15.8611 13.61 15.8394 13.6487C15.7761 13.7816 15.7613 13.8203 15.7123 13.952C15.6775 14.0684 15.6137 14.1408 15.5817 14.1727C15.0714 14.6733 15.9654 15.6117 16.0988 17.3279C16.1878 18.0525 16.3628 18.3775 16.5293 18.8758C16.555 18.9431 16.5715 19.0007 16.5823 19.0674C16.8138 19.8667 16.9649 20.6815 17.2722 21.4221C17.6382 22.6114 16.2032 22.4159 16.1445 23.4022C16.1108 24.0716 16.8965 24.4387 16.7625 24.9285C16.7539 24.9593 16.6964 24.9929 16.7289 25.0328C17.3338 25.6606 17.5675 25.514 17.8121 26.0346C18.38 27.0295 18.9969 25.9411 20.0249 27.3921C20.798 27.7507 21.5141 28.1669 22.2712 28.6675C22.3254 28.4982 22.3756 28.2884 22.4212 28.0147C22.5113 27.4736 22.4936 26.9274 22.1515 26.1726C22.0888 26.0625 22.1264 25.8761 22.2376 25.7877C22.2941 25.7455 22.318 25.729 22.3243 25.8162C22.4201 26.8197 23.2422 27.4964 22.7359 28.4457C22.7177 28.4805 22.696 28.509 22.7023 28.5655C22.7131 28.6937 22.6869 28.8089 22.6384 28.9184L23.1225 29.2781C23.1544 29.2 23.1835 29.1345 23.2017 29.0877C23.4172 27.9725 23.5866 26.1726 23.7485 25.9485C23.7633 25.9268 23.781 25.8932 23.7485 25.8692C23.5603 25.6748 23.3488 25.3521 23.4452 25.2546C23.5484 25.1765 24.1493 25.4194 24.1459 25.855C24.1208 26.245 23.7405 29.8557 23.265 30.3654C23.2422 30.3916 23.2508 30.4099 23.265 30.4293C23.4725 30.7217 23.4281 30.7942 23.3551 30.8312C23.289 30.8563 23.151 30.8455 23.0888 30.8683C23.078 30.8717 23.0672 30.8717 23.0586 30.8717C23.1424 30.9777 23.2593 31.069 23.3693 31.1494C23.4355 31.0844 23.5472 31.0365 23.7188 31.0108C24.3893 30.8945 25.029 30.9139 25.5188 31.1454C25.5844 31.179 25.6254 31.2189 25.6494 31.2617C25.8233 31.1505 25.984 31.0353 26.1414 30.8911C26.0958 30.9247 25.9989 30.8922 25.984 30.8152C25.7155 29.3517 25.4287 29.1259 25.2594 28.0221C25.191 27.6475 25.1585 27.2553 25.2292 26.8961C25.252 26.7798 25.2594 26.6743 25.2292 26.5483C25.1322 26.1874 25.1379 25.8105 25.2189 25.453C25.2736 25.3327 25.4145 25.1719 25.5148 25.0363C25.598 24.9274 25.6568 24.8002 25.7024 24.6622C25.7491 24.5191 26.2132 23.8258 26.6095 23.7164C26.6431 23.7078 26.6477 23.6879 26.6517 23.6565C26.6551 23.6217 26.5901 23.6206 26.5952 23.5676C26.6095 23.2916 28.3444 23.4404 29.2578 23.5254C29.6056 23.4946 29.9528 23.4404 30.2812 23.3794C30.3388 23.3686 30.3428 23.3885 30.308 23.425C30.0355 23.7249 29.6432 23.8891 29.288 23.9347C29.2208 23.9444 29.2025 23.9815 29.1894 24.0322C28.9864 25.0505 27.5132 25.5425 26.8723 25.4228C26.8313 25.4154 26.8301 25.4445 26.8313 25.465C26.878 25.9867 26.654 26.0397 26.4595 27.5648C26.4476 27.6498 26.451 27.7256 26.4641 27.8117C26.4943 28.0592 26.5662 28.2941 26.6215 28.5546C27.5189 27.9714 28.5235 27.4953 29.4716 27.1025C29.6632 26.8858 29.853 26.6897 30.052 26.469C30.1073 26.396 30.2139 26.3516 30.3149 26.3157C31.0697 25.9987 31.8343 25.5055 32.4079 24.8829C32.4244 24.8624 32.4592 24.8287 32.4484 24.7894C32.2733 23.9706 32.8132 23.7283 33.1531 23.1211C33.2044 23.0419 33.1491 23.0214 33.0932 22.9928C32.7197 22.7574 32.3799 22.4324 32.1188 22.1274C32.0572 22.0361 32.031 21.921 32.0093 21.8189C31.7391 20.5475 32.2984 20.4546 32.3993 19.7191C32.3919 19.353 32.4905 18.9226 32.6057 18.5423C32.7414 18.0993 32.8024 17.7395 32.9586 17.4921C33.0356 15.2771 33.7232 15.7771 33.5356 14.5963C33.4866 14.3603 33.3617 13.9315 33.2129 13.6368C33.2009 13.6088 33.1827 13.5968 33.1616 13.5957ZM32.738 14.0279C32.75 14.025 32.7631 14.0267 32.775 14.0279C32.8543 14.0336 32.9164 14.0923 32.925 14.1658C32.9392 14.3095 32.9706 14.4418 32.9991 14.5746C32.4871 15.7987 32.7847 17.479 32.1148 18.5087C32.0812 19.4106 31.9683 19.9859 31.4324 20.3457C31.4107 20.3622 31.3867 20.3599 31.3611 20.3457C30.5059 19.9277 29.7413 19.0566 28.995 18.373C30.1564 17.6169 29.1044 16.8227 29.9323 15.955C30.8958 14.9373 31.7442 14.8363 32.6251 14.0792C32.6622 14.0478 32.7004 14.0313 32.738 14.0279ZM16.088 14.0912C16.1935 14.0923 16.3149 14.1487 16.4022 14.2331C17.2602 14.6083 17.1833 14.9515 17.8532 15.2879C17.9957 15.362 18.2397 15.4954 18.4279 15.5382C18.5146 15.8387 18.656 15.8301 18.9712 16.3678C19.0471 16.4995 19.3242 16.7155 19.3492 16.8957C19.3686 17.0086 19.3664 17.1067 19.3578 17.215C19.3492 17.5206 19.2232 17.8125 19.3914 17.9493C19.5294 18.02 19.4382 18.0896 19.6879 18.2156C19.8139 18.2766 19.8789 18.3393 19.8116 18.471C19.6121 18.8205 19.3675 19.1084 19.1446 19.4277C19.0864 19.5018 19.0015 19.5606 18.9154 19.6113C18.4313 19.9015 18.0294 20.3097 17.5949 20.6946C17.5675 20.7151 17.5544 20.6946 17.535 20.6877C17.1188 20.4511 17.0082 20.0384 16.9529 19.4756C16.8092 17.9733 16.5076 19.2726 16.0014 14.7993C15.9329 14.5974 15.8588 14.2377 15.9221 14.155C15.9654 14.1105 16.023 14.09 16.088 14.0912ZM25.886 17.0046C25.5006 17.719 25.305 17.6517 25.0724 17.9311C25.0553 17.9505 25.0376 17.9744 25.0193 17.9984C25.0028 18.0223 24.9846 18.0474 24.968 18.0765C24.9498 18.105 24.9367 18.1306 24.9293 18.1557C24.9293 18.1569 24.9304 18.158 24.9293 18.1592C24.9236 18.1831 24.9196 18.2099 24.9184 18.231C24.9293 18.4642 24.8911 18.5588 24.9521 18.6358C24.9561 18.6415 24.9583 18.6478 24.9595 18.6546C24.9629 18.662 24.9629 18.6694 24.964 18.6763C24.9652 18.6922 24.9618 18.7076 24.9561 18.7185C24.9127 18.6911 24.8455 18.6392 24.7879 18.5879C24.7434 18.548 24.7063 18.5109 24.6892 18.4784C24.6892 18.4773 24.6904 18.4762 24.6892 18.475C24.6847 18.4642 24.6824 18.4533 24.6824 18.4448C24.6824 18.4208 24.6801 18.4055 24.6784 18.3918C24.6727 18.3382 24.6573 18.3462 24.6448 18.2874C24.6391 18.2578 24.6316 18.211 24.6294 18.1295C24.6282 18.0896 24.6294 18.0394 24.6294 17.979C24.6248 17.9408 24.6282 17.9214 24.6379 17.9049C24.6413 17.8975 24.6465 17.8895 24.6522 17.8821C24.6584 17.8746 24.6641 17.8678 24.6716 17.8593C25.0194 17.5018 25.4812 17.2652 25.886 17.0046ZM23.1116 17.0913C23.476 17.3387 23.8853 17.6694 24.285 18.0018C24.2936 18.0115 24.2993 18.0212 24.3078 18.032C24.3306 18.0668 24.3477 18.1078 24.338 18.1592C24.3141 18.3102 24.2417 18.4556 24.1841 18.609C24.1818 18.6164 24.1772 18.6198 24.1721 18.625C24.1676 18.6284 24.1636 18.6335 24.1579 18.6358C24.1459 18.6404 24.1316 18.6392 24.1242 18.6318C24.0524 18.5406 23.9743 18.4482 23.9093 18.3547C23.8876 18.3262 23.8648 18.2948 23.8648 18.2566C23.8677 18.2264 23.8688 18.1962 23.8688 18.1711C23.8688 18.1449 23.8677 18.1221 23.8648 18.0993C23.8591 18.0571 23.846 18.02 23.8277 17.991C23.8266 17.9898 23.8277 17.9875 23.8277 17.9875C23.7895 17.9265 23.7234 17.8906 23.6179 17.8627C23.5313 17.8376 23.456 17.7994 23.3922 17.7549C23.391 17.7538 23.3899 17.7549 23.3887 17.7549C23.2952 17.6876 23.228 17.5976 23.1823 17.4887C23.1823 17.4875 23.1789 17.4858 23.1789 17.4847C23.1333 17.3735 23.1128 17.2435 23.1116 17.0913ZM27.9379 20.6011C28.036 20.5965 28.1392 20.6085 28.2412 20.6313C28.3422 20.6541 28.4431 20.6889 28.5292 20.7356C28.556 20.7522 28.5628 20.7847 28.5332 20.7955C28.3889 20.8343 28.2424 20.8833 28.0947 20.942C28.0206 20.9705 27.9488 21.003 27.8729 21.0355C27.5012 21.1997 27.122 21.405 26.7452 21.5949C26.7053 21.6114 26.679 21.6057 26.6619 21.5829C26.6562 21.5743 26.6517 21.5658 26.6477 21.5527C26.6391 21.5122 26.6408 21.4723 26.6443 21.4329C26.6465 21.3942 26.654 21.3548 26.6551 21.3126C26.6585 21.255 26.6944 21.2516 26.715 21.2225C26.7857 21.1952 26.8455 21.1712 26.8951 21.1484C27.0428 21.08 27.1027 21.0321 27.1528 20.9876C27.1876 20.9574 27.219 20.9301 27.2623 20.8964C27.3068 20.8639 27.3655 20.8269 27.4613 20.7813C27.5189 20.755 27.5765 20.7311 27.6329 20.7054C27.6905 20.6815 27.7469 20.6575 27.8022 20.6381C27.8456 20.6153 27.8957 20.6022 27.9379 20.6011ZM20.6212 20.6792C20.6287 20.6792 20.6383 20.6815 20.644 20.6792C20.668 20.6877 20.6874 20.6974 20.7045 20.7054C20.721 20.7151 20.733 20.7248 20.745 20.7356C20.7894 20.7738 20.8077 20.8172 20.9217 20.8713C20.9491 20.8844 20.985 20.901 21.026 20.9158C21.0677 20.9301 21.1173 20.9443 21.176 20.9614C21.3174 21.007 21.4183 21.0333 21.513 21.0692C21.5152 21.0703 21.5152 21.0726 21.5181 21.0726C21.6116 21.1102 21.7017 21.1558 21.8128 21.2345C21.8516 21.2613 21.8921 21.2927 21.9377 21.3286C21.9822 21.3645 22.0329 21.405 22.0877 21.4517C22.1105 21.47 22.131 21.482 22.1361 21.5156C22.1373 21.5264 22.1361 21.5373 22.1321 21.5492V21.5527C22.1287 21.5646 22.1236 21.5755 22.1179 21.5874C22.1036 21.6125 22.0842 21.6342 22.0649 21.6513C22.058 21.6559 22.0517 21.6598 22.046 21.6621C22.0409 21.6633 22.0312 21.6633 22.0192 21.6621C21.9833 21.6547 21.9548 21.6502 21.9257 21.6393C21.8995 21.6296 21.8767 21.6177 21.855 21.6057C21.8322 21.5937 21.8128 21.5829 21.7952 21.5686C21.7769 21.5538 21.7627 21.5384 21.7461 21.523C21.7125 21.4917 21.6777 21.4592 21.6333 21.4255C21.6127 21.409 21.5899 21.393 21.562 21.3765C21.5346 21.3605 21.5033 21.344 21.4685 21.3286C21.4326 21.3126 21.4041 21.3092 21.375 21.3166C21.3653 21.32 21.3545 21.3223 21.3453 21.3286C21.3066 21.344 21.2706 21.3257 21.2324 21.3166C21.2034 21.3103 21.1709 21.2995 21.1389 21.2875C21.1372 21.2864 21.1361 21.2875 21.1349 21.2875C20.9012 21.1952 20.6104 20.9671 20.6093 20.6946C20.6093 20.69 20.6121 20.6855 20.6133 20.6826C20.6155 20.6815 20.6178 20.6792 20.6212 20.6792ZM21.1196 23.2893C21.1817 23.2893 21.2467 23.2927 21.3117 23.2962C21.3773 23.3024 21.4445 23.3081 21.513 23.319C21.5648 23.3275 21.615 23.3384 21.668 23.3492C21.6846 23.3538 21.7017 23.3566 21.7193 23.3612C21.7507 23.3686 21.7821 23.3777 21.8128 23.3874C21.8539 23.3982 21.8932 23.4102 21.9331 23.425C21.9919 23.445 22.0483 23.4666 22.1059 23.4917C22.1561 23.5134 22.2068 23.5373 22.2559 23.563C22.3049 23.5892 22.3545 23.6194 22.4024 23.6491C22.4429 23.6742 22.4828 23.701 22.5221 23.7283C22.5404 23.7403 22.558 23.7489 22.5751 23.762C22.6036 23.7836 22.6327 23.8064 22.6612 23.8293C22.6675 23.8338 22.6732 23.8389 22.6795 23.8446C22.684 23.8486 22.6903 23.8521 22.6949 23.8555C22.7034 23.8629 22.7131 23.8714 22.7217 23.8783C22.7587 23.9108 22.7958 23.9478 22.8328 23.9826C22.8813 24.0282 22.9269 24.075 22.9725 24.1257C22.9759 24.1291 22.9794 24.1326 22.9845 24.1366C23.025 24.1833 23.0632 24.2323 23.1042 24.2825C23.127 24.3139 23.151 24.3452 23.1749 24.3766C23.1943 24.404 23.212 24.4279 23.2314 24.4558C23.2736 24.518 23.3118 24.583 23.3517 24.6514C23.3671 24.6776 23.379 24.7124 23.3779 24.7409C23.3768 24.7506 23.3745 24.758 23.3693 24.7677C23.3323 24.847 23.3095 24.9274 23.2912 25.0186C23.289 25.0317 23.277 25.0425 23.265 25.0448C23.2604 25.0448 23.253 25.0437 23.2496 25.0414C23.1846 25.0015 23.1248 24.9633 23.066 24.9211C23.0096 24.8806 22.9566 24.8361 22.9052 24.7928C22.9041 24.7928 22.9013 24.7939 22.9013 24.7928C22.8488 24.7495 22.8009 24.7039 22.7513 24.6582C22.3112 24.2517 22.0016 23.8099 21.4086 23.6913C21.4075 23.6901 21.4063 23.6913 21.4052 23.6913C21.1401 23.6383 20.8219 23.6514 20.408 23.7586C20.27 23.7728 20.1172 23.7728 19.9616 23.762C19.8054 23.7511 19.6469 23.7295 19.4958 23.7021C19.4228 23.689 19.347 23.673 19.2786 23.6565C19.2774 23.6565 19.2763 23.6576 19.2751 23.6565C19.2067 23.6405 19.1429 23.6217 19.0841 23.6046C19.0818 23.6035 19.0807 23.6046 19.0796 23.6046C18.9581 23.5687 18.8601 23.5305 18.7916 23.4957C19.1012 23.5014 19.4416 23.498 19.7358 23.4849C20.03 23.4718 20.2746 23.4524 20.392 23.4284C20.432 23.4091 20.4798 23.3925 20.5317 23.3754C20.5796 23.36 20.6349 23.3429 20.6925 23.3309C20.6971 23.3298 20.7033 23.3309 20.7079 23.3309C20.7592 23.3201 20.8134 23.311 20.8721 23.3047C20.8818 23.3036 20.8892 23.3013 20.8989 23.3013C20.9696 23.2939 21.0426 23.2905 21.1196 23.2893ZM27.6557 23.7922C27.394 23.8076 27.1072 23.9074 26.7822 24.189C26.2902 24.6725 25.8763 25.274 25.5593 25.843C25.5222 25.9126 25.5102 25.9759 25.5256 26.0494C25.886 27.7074 26.0405 28.533 26.1078 28.9708L26.3444 28.7753C26.2024 28.3762 26.1294 27.8933 26.1785 27.3128C26.3489 26.8687 26.4379 26.3442 26.516 25.843C26.7748 25.2934 26.8016 25.0602 27.0519 25.075C27.2766 25.087 27.5092 25.0978 27.7196 25.0522C27.8011 25.0363 27.8684 25.0038 27.9413 24.9581C28.2954 24.7449 28.5976 24.4558 28.8559 24.1291C28.8872 24.0955 28.906 24.0237 28.8895 23.9912C28.8798 23.9661 28.8644 23.953 28.8331 23.953C28.4607 23.9758 28.0936 23.7665 27.6557 23.7922ZM27.536 23.8327C27.6055 23.8315 27.6774 23.8469 27.7458 23.8749C27.8838 23.929 27.9847 24.0345 28.0388 24.1594C28.0662 24.2227 28.0816 24.2888 28.0845 24.3583C28.0856 24.4279 28.0736 24.4997 28.0457 24.5682C28.0183 24.6366 27.9784 24.6953 27.9294 24.7449C27.7828 24.8926 27.5536 24.9462 27.3484 24.8646C27.3136 24.8504 27.2811 24.8361 27.2515 24.8156C27.2213 24.7962 27.1973 24.7723 27.1722 24.7483C27.0246 24.6018 26.9704 24.3766 27.0519 24.1713C27.0628 24.1434 27.0747 24.1195 27.0895 24.0955C27.0918 24.0932 27.0953 24.0909 27.0975 24.0881C27.1038 24.0778 27.1084 24.0681 27.1158 24.0585C27.13 24.0391 27.146 24.0225 27.1614 24.0054L27.1756 23.9912C27.1984 23.9684 27.2213 23.9456 27.248 23.9273C27.268 23.9119 27.292 23.9011 27.3148 23.8891C27.3187 23.888 27.3222 23.888 27.3256 23.8857C27.333 23.8834 27.3376 23.8771 27.345 23.8749C27.3741 23.8629 27.4037 23.8543 27.4351 23.8486C27.4676 23.8412 27.5023 23.8338 27.536 23.8327ZM21.5517 23.8412C21.6213 23.8389 21.688 23.8509 21.7581 23.8783C21.7912 23.8914 21.8248 23.9074 21.855 23.9273C21.8853 23.9467 21.9092 23.9695 21.9331 23.9946C21.9594 24.0203 21.981 24.0442 22.0016 24.0727C22.0398 24.1303 22.0688 24.1941 22.0842 24.2614C22.1059 24.3606 22.0985 24.469 22.058 24.5722C22.0432 24.6069 22.0278 24.6354 22.0084 24.6657C22.0084 24.6668 22.0101 24.6679 22.0084 24.6691C21.9309 24.7865 21.8083 24.8658 21.6749 24.8949C21.6076 24.9091 21.538 24.9102 21.4685 24.8983C21.4337 24.8926 21.3978 24.8817 21.3641 24.8686C21.3294 24.8538 21.2957 24.8384 21.2661 24.819C21.2074 24.7808 21.1589 24.7301 21.1196 24.6725C21.0232 24.5311 20.9958 24.3464 21.0642 24.1748C21.0774 24.1411 21.0967 24.1098 21.1161 24.0813C21.1338 24.0533 21.1509 24.0282 21.172 24.0054C21.1771 24.0009 21.1828 23.9986 21.188 23.9946C21.2108 23.9718 21.2324 23.9478 21.2587 23.9313C21.2803 23.9153 21.3031 23.9045 21.3259 23.8925C21.3271 23.8925 21.3282 23.8903 21.3294 23.8891C21.351 23.8794 21.375 23.8749 21.3978 23.8675C21.4194 23.8606 21.4423 23.8521 21.4651 23.8486H21.4725C21.4976 23.8435 21.5249 23.8412 21.5517 23.8412ZM19.8487 24.1029C19.8618 24.1029 19.8761 24.1052 19.8897 24.1075C19.892 24.1075 19.8954 24.1063 19.8977 24.1075C19.9217 24.1098 19.9456 24.1183 19.9724 24.1291C20.0009 24.1411 20.0311 24.1554 20.0625 24.1748C20.0944 24.1941 20.1281 24.2158 20.1646 24.242L20.1748 24.2494C20.2062 24.2734 20.2375 24.2973 20.2723 24.3247C20.3094 24.3538 20.3442 24.3789 20.3852 24.4114C20.4605 24.4701 20.5437 24.5345 20.6321 24.5984C20.6765 24.6309 20.7222 24.6605 20.7712 24.6919C20.8088 24.7158 20.847 24.7438 20.8881 24.7677C20.9046 24.7774 20.9229 24.7865 20.9394 24.7962C20.9861 24.823 21.0357 24.8481 21.0859 24.872C21.1349 24.896 21.1868 24.9177 21.2393 24.9393C21.2564 24.9462 21.2718 24.9559 21.2889 24.9621C21.3413 24.9821 21.3966 24.9981 21.4531 25.0146C21.5204 25.034 21.5888 25.0534 21.6595 25.0676C21.7313 25.0807 21.8049 25.0904 21.8813 25.0961C21.9582 25.1035 22.0386 25.1081 22.1213 25.1081C22.1373 25.1081 22.1492 25.1121 22.1589 25.1189C22.1681 25.1252 22.1755 25.1337 22.1777 25.1491C22.18 25.2786 22.0614 25.3242 21.9331 25.3327C21.8573 25.3339 21.7821 25.3316 21.7051 25.3293C21.4793 25.323 21.2552 25.3054 21.0295 25.2689C21.0055 25.2666 20.985 25.2609 20.9622 25.2512C20.9405 25.2415 20.9217 25.2284 20.8989 25.213C20.8293 25.1657 20.7558 25.1121 20.6817 25.0522C20.607 24.9918 20.5363 24.9296 20.4679 24.8686C20.3972 24.8059 20.3322 24.7483 20.2757 24.6953C20.2204 24.644 20.1765 24.5995 20.1452 24.5682C20.1127 24.5397 20.0876 24.5157 20.0659 24.4929C20.0454 24.4712 20.0277 24.4496 20.0129 24.433C19.9855 24.3994 19.9736 24.3766 19.9582 24.3549C19.9496 24.3441 19.9411 24.3344 19.9314 24.3247C19.9017 24.2934 19.8533 24.2597 19.7444 24.201C19.7312 24.1953 19.7227 24.1902 19.7216 24.1822C19.7204 24.177 19.7204 24.1736 19.725 24.1673C19.729 24.1616 19.7324 24.1542 19.7392 24.1485C19.7512 24.1388 19.766 24.1314 19.778 24.1257C19.7888 24.1195 19.7997 24.1138 19.8116 24.1109C19.8236 24.1075 19.8356 24.1041 19.8487 24.1029Z" fill="#FDCC44"/>
</g>
<defs>
<clipPath id="clip0_1656_4311">
<rect width="48" height="48" fill="white" transform="translate(0.5)"/>
</clipPath>
</defs>
</svg>
